<svg width="1280" height="545" viewBox="0 0 1280 545" fill="none" xmlns="http://www.w3.org/2000/svg">
<path d="M1280 20.3457V544.992H0V241.85C16.9131 257.086 35.3109 270.683 54.8523 282.37C63.3856 287.471 72.6187 292.351 82.5685 292.351C100.403 292.368 114.176 277.303 130.526 270.154C161.485 256.591 196.966 272.782 225.502 290.901C254.02 309.037 284.331 330.38 317.986 327.326C342.391 325.108 366.592 310.026 389.888 317.567C414.771 325.62 435.712 357.951 459.042 346.179C464.094 343.637 468.087 339.201 473.361 337.153C486.366 332.155 499.319 343.244 511.966 349.113C522.359 353.924 529.715 353.43 540.262 351.655C550.946 349.864 560.06 351.621 569.975 345.803C573.457 343.756 577.161 342.221 580.847 340.668C600.354 332.359 619.759 325.808 640.256 321.628C653.995 318.83 666.061 325.006 679.253 325.398C687.804 325.654 696.474 324.818 704.99 325.518C724.19 327.087 745.062 331.25 762.897 339.269C769.161 342.084 776.158 345.616 782.558 343.091C793.207 338.894 791.893 323.3 798.071 313.66C807.475 299.005 829.901 302.878 845.534 310.538C861.184 318.181 879.36 328.026 894.788 319.973C911.65 311.186 916.804 284.247 935.731 282.473C948.207 281.295 959.027 292.709 971.554 292.419C990.669 291.959 997.956 267.22 997.769 248.111C997.564 229.003 997.939 205.203 1015.19 196.979C1026.12 191.776 1039.43 195.734 1050.9 191.861C1071.12 185.037 1077.74 157.449 1097.45 149.276C1125.96 137.47 1155.09 173.913 1185.47 168.504C1203.64 165.263 1215.91 147.724 1221.63 130.168C1227.35 112.595 1228.66 93.7085 1235.81 76.6815C1245.12 54.502 1263.14 37.8504 1280 20.3457Z" fill="#FEFDF9"/>
<path d="M448.87 252.002C444.075 254.288 439.518 255.431 434.893 255.499C436.668 253.23 438.886 252.002 441.958 251.695C442.999 251.592 443.153 249.835 442.027 249.784C438.272 249.613 434.278 251.951 432.759 255.448C430.421 255.312 428.049 254.919 425.609 254.254C428.527 251.831 431.172 249.101 433.476 246.133C437.879 247.651 442.778 246.61 446.242 243.454C447.198 242.584 446.054 240.912 445.082 241.782C442.146 244.392 438.391 245.365 434.637 244.58C436.617 241.816 438.306 238.882 439.637 235.845C440.678 233.456 437.094 231.733 435.968 234.105C433.152 240.059 429.5 244.921 425.148 248.862C424.585 244.921 424.858 240.417 427.947 237.739C428.902 236.903 427.895 235.367 426.803 236.101C422.383 239.018 422.366 245.655 423.39 250.415C417.826 254.97 411.204 258.127 403.78 260.242C407.808 253.094 411.238 245.621 414.037 238.012C420.318 236.476 426.615 232.45 429.329 226.461C429.722 225.574 428.493 224.704 427.861 225.506C426.206 227.673 424.482 229.618 422.605 231.29C422.571 226.7 424.243 222.964 427.844 219.756C428.681 219.006 427.81 217.658 426.82 218.306C422.212 221.275 419.703 227.451 420.745 232.808C418.953 234.122 416.99 235.197 414.754 235.981C417.911 227.024 420.164 217.931 421.41 209.076C421.786 206.432 417.809 205.715 417.314 208.359C416.256 213.921 414.976 219.398 413.457 224.772C413.013 223.527 412.041 222.418 411.597 221.155C410.846 218.954 410.829 216.839 410.999 214.57C411.068 213.614 409.549 213.205 409.31 214.194C408.73 216.6 408.951 219.142 409.702 221.479C410.266 223.22 411.153 225.711 413.013 226.308C412.058 229.549 411.017 232.757 409.856 235.93C409.412 235.145 408.986 234.343 408.661 233.473C407.825 231.238 407.398 228.918 407.228 226.547C407.159 225.625 405.606 225.694 405.606 226.615C405.658 230.419 406.545 235.128 408.934 238.404C408.149 240.468 407.313 242.516 406.426 244.563C402.603 237.261 400.111 229.515 399.104 221.462C401.203 220.029 402.978 218.238 404.395 216.088C405.726 214.075 407.586 211.021 407.142 208.513C407.057 208.069 406.443 207.745 406.118 208.189C404.787 210.048 404.412 212.539 403.183 214.536C402.022 216.429 400.538 218.033 398.865 219.432C398.575 216.225 398.507 212.983 398.694 209.707C398.831 207.387 395.247 207.063 395.093 209.4C394.701 215.133 394.991 220.797 395.964 226.308C394.308 225.557 392.841 224.465 391.782 222.964C390.519 221.172 390.537 219.21 389.683 217.299C389.444 216.771 388.557 216.6 388.318 217.231C387.516 219.5 388.745 222.332 390.11 224.209C388.762 224.431 387.447 224.431 386.082 223.987C384.529 223.476 383.59 222.128 382.157 221.599C381.645 221.411 380.877 221.735 381.013 222.401C381.406 224.329 383.71 225.472 385.434 226.018C387.43 226.666 389.615 226.683 391.543 225.847C392.909 227.127 394.547 227.997 396.373 228.474C397.005 231.511 397.841 234.497 398.899 237.414C397.039 237.551 395.162 237.329 393.404 236.647C391.27 235.828 389.854 234.309 388.062 233.013C387.447 232.569 386.253 233.132 386.697 233.968C388.949 238.37 394.974 239.957 399.65 239.342C400.964 242.652 402.551 245.86 404.412 248.982C402.859 252.241 401.186 255.448 399.36 258.604C395.435 265.395 390.98 271.554 386.133 277.372C385.69 274.403 385.348 271.468 385.126 268.568C389.103 265.975 392.465 261.556 392.516 256.762C392.516 255.943 391.134 255.67 390.878 256.472C389.564 260.481 388.062 263.876 384.99 266.435C384.802 262.87 384.836 259.304 385.092 255.687C388.983 254.083 392.226 250.483 393.045 246.337C393.267 245.246 391.492 244.614 391.134 245.723C390.007 249.084 388.164 251.797 385.28 253.588C385.536 250.859 385.946 248.095 386.492 245.263C386.884 243.266 383.488 242.499 382.976 244.495C382.481 246.44 382.054 248.436 381.713 250.449C378.624 247.088 377.412 243.164 378.044 238.336C378.18 237.312 376.525 236.92 376.252 237.943C374.767 243.318 376.9 249.562 381.321 252.957C380.979 255.38 380.74 257.837 380.638 260.293C378.095 258.57 376.405 256.199 376.081 252.906C375.962 251.712 374.204 252.07 374.272 253.213C374.477 257.12 376.969 260.959 380.587 262.563C380.535 266.452 380.774 270.342 381.389 274.164C378.761 273.362 376.747 271.656 375.774 268.892C375.433 267.92 373.743 268.432 374.033 269.421C375.057 272.97 378.078 275.802 381.764 276.297C382.089 277.918 382.464 279.521 382.925 281.108C378.351 286.295 373.47 291.242 368.384 296.139C370.142 278.02 370.756 259.696 370.961 241.663C371.081 231.733 370.961 221.821 370.603 211.908C381.508 206.159 390.451 197.662 396.766 187.528C398.217 187.272 399.684 186.948 401.118 186.572C401.903 188.091 403.081 189.353 404.617 190.155C406.05 190.906 408.542 191.708 409.856 190.479C410.078 190.275 410.044 189.797 409.788 189.626C408.678 188.893 407.194 189.183 405.931 188.671C406.443 188.261 407.006 187.937 407.654 187.715C408.491 187.425 409.344 187.562 410.129 187.135C410.761 186.794 410.47 185.975 410.01 185.685C409.105 185.105 407.603 185.566 406.665 185.941C405.726 186.316 404.941 186.897 404.258 187.63C403.712 187.187 403.234 186.675 402.842 186.078C405.794 185.19 408.695 184.03 411.477 182.648C415.232 187.562 422.844 186.419 427.81 183.689C428.749 183.177 427.913 181.642 426.957 182.051C424.158 183.228 421.257 184.081 418.56 183.877C418.97 183.621 419.396 183.348 419.806 183.058C420.335 182.682 420.847 182.29 421.393 181.966C422.042 181.591 422.827 181.488 423.373 180.993C423.765 180.635 423.885 179.85 423.253 179.629C420.779 178.758 418.133 182.205 415.949 183.314C415.027 182.955 414.157 182.409 413.338 181.676C416.717 179.816 419.874 177.598 422.724 175.039C425.762 178.076 430.524 179.731 434.654 178.042C435.558 177.666 435.302 176.182 434.261 176.319C430.473 176.796 426.957 176.353 424.09 173.794C425.574 172.36 426.94 170.825 428.203 169.204C433.988 169.801 440.849 168.658 445.15 164.734C445.73 164.205 444.979 163.267 444.314 163.54C442.385 164.325 440.61 165.297 438.699 166.048C439.142 165.587 439.586 165.11 439.979 164.581C441.139 163.079 442.59 161.117 442.624 159.172C442.624 158.439 441.634 158.251 441.207 158.729C439.996 160.094 439.45 162.039 438.289 163.523C437.197 164.905 435.917 166.082 434.534 167.157C432.879 167.43 431.189 167.515 429.517 167.464C430.66 165.826 431.701 164.12 432.606 162.311C433.596 160.349 430.592 158.302 429.295 160.179C427.298 163.096 425.165 165.792 422.895 168.266C422.502 166.253 422.383 164.325 422.485 162.414C422.98 161.424 423.612 160.503 424.397 159.701C424.858 159.206 425.387 158.763 425.933 158.37C426.479 157.978 427.025 157.756 427.281 157.091C427.435 156.681 427.247 156.238 426.786 156.152C425.421 155.897 423.936 157.466 423.066 158.353C423.066 158.353 423.066 158.353 423.049 158.37C423.305 157.227 423.612 156.067 424.004 154.856C424.346 153.781 422.98 153.081 422.4 154.088C419.703 158.746 419.516 164.888 421.222 169.989C415.181 176.046 408.064 180.516 399.411 182.836C400.35 181.028 401.203 179.168 401.988 177.274C406.716 176.438 412.74 173.964 414.447 169.716C414.635 169.255 414.174 168.539 413.628 168.829C411.767 169.801 410.351 171.405 408.593 172.565C408.986 171.303 409.463 170.125 410.317 168.982C411.187 167.822 413.201 166.867 413.406 165.4C413.457 165.075 413.252 164.837 412.945 164.734C411.17 164.205 409.139 167.037 408.286 168.3C407.228 169.87 406.289 171.917 406.204 173.862C405.129 174.357 404.019 174.715 402.876 175.022C404.156 171.559 405.163 167.993 405.862 164.325C410.999 163.062 415.625 159.275 417.007 154.054C417.263 153.081 415.778 152.672 415.369 153.525C414.498 155.333 413.423 156.988 412.143 158.37C412.143 157.569 412.228 156.767 412.382 155.982C412.655 154.583 413.355 153.354 413.696 151.972C413.918 151.085 412.757 150.727 412.211 151.273C410.163 153.371 409.822 157.176 410.283 160.059C409.088 160.998 407.74 161.731 406.238 162.243C406.886 158.166 407.177 153.986 407.057 149.772C406.989 147.042 402.756 147.451 402.825 150.164C402.927 153.798 402.705 157.398 402.193 160.947C401.22 159.377 400.299 157.859 399.838 155.948C399.223 153.474 399.343 151.051 399.804 148.56C399.991 147.52 398.268 147.144 397.978 148.168C397.534 149.737 397.312 151.495 397.363 153.286C397.09 153.252 396.8 153.32 396.578 153.559C394.786 155.504 392.875 156.801 390.468 157.364C391.526 155.487 392.311 153.337 391.987 151.444C391.868 150.744 390.963 150.556 390.622 151.205C389.325 153.679 389.018 156.323 387.277 158.643C386.372 159.855 385.314 160.895 384.154 161.783C384.427 158.933 384.341 156.033 383.881 153.133C387.601 149.908 389.837 144.909 389.376 139.961C389.257 138.648 387.379 138.87 387.362 140.149C387.328 144.278 386.031 147.895 383.42 150.778C383.113 149.464 382.771 148.134 382.31 146.837C381.423 144.295 377.549 145.728 378.385 148.287C381.594 158.2 380.058 167.703 374.75 175.449C374.647 174.476 374.545 173.521 374.511 172.548C374.443 170.603 374.665 168.641 374.921 166.713C375.04 165.758 373.504 165.4 373.248 166.355C372.343 169.733 372.002 173.981 373.316 177.359C372.002 179.014 370.5 180.567 368.811 182.017C368.503 178.281 368.179 174.527 367.821 170.791C370.108 168.914 371.797 166.423 372.736 163.676C375.211 162.602 377.856 159.923 377.873 157.108C377.873 156.101 376.491 156.067 376.081 156.801C375.484 157.876 375.228 159.002 374.426 159.991C374.101 160.384 373.743 160.742 373.367 161.083C373.726 158.797 373.572 156.425 372.821 154.139C372.497 153.133 370.79 153.491 370.978 154.566C371.985 159.991 370.978 164.615 367.582 168.368C367.206 164.632 366.797 160.895 366.353 157.176C366.029 154.463 361.813 154.856 362.121 157.569C362.513 160.895 362.871 164.239 363.213 167.566C360.346 166.236 357.666 164.939 355.277 162.96C356.591 159.019 357.239 154.549 354.526 151.119C353.741 150.13 352.307 151.154 352.939 152.228C354.714 155.282 354.441 158.336 353.673 161.458C353.092 160.844 352.529 160.179 352 159.445C350.481 157.33 349.44 155.078 348.757 152.74C350.583 151.546 352.256 149.874 353.553 147.946C356.779 147.332 359.526 144.039 360.329 140.968C360.567 140.047 359.253 139.518 358.69 140.2C357.769 141.309 357.291 142.725 356.386 143.851C356.011 144.329 355.55 144.756 355.072 145.148C355.977 143.015 356.369 140.712 356.028 138.477C355.891 137.539 354.423 137.368 354.27 138.409C353.57 143.459 352.171 147.485 348.297 150.761C347.58 147.076 347.75 143.237 348.553 139.433C348.945 137.607 345.856 136.925 345.361 138.733C344.644 141.309 344.371 144.09 344.491 146.905C343.637 146.393 342.818 145.865 342.153 144.994C340.89 143.357 340.412 141.173 340.565 139.125C340.651 137.965 338.978 137.846 338.79 138.972C338.398 141.343 338.859 143.664 340.241 145.66C341.248 147.11 342.886 148.697 344.678 149.174C345.225 153.866 346.863 158.524 349.457 162.397C349.065 162.567 348.655 162.721 348.194 162.789C346.88 162.977 345.6 162.687 344.457 162.021C343.518 161.493 342.545 162.823 343.484 163.438C345.429 164.717 348.535 165.297 350.72 164.12C353.911 168.112 358.263 170.996 363.622 171.712C365.807 194.267 366.95 216.907 366.831 239.581C366.831 241.782 366.763 243.983 366.729 246.184C361.284 243.556 356.506 240.366 352.239 236.715C352.341 236.613 352.444 236.493 352.529 236.357C353.587 234.582 354.509 232.757 355.294 230.863C356.847 230.778 358.417 229.908 359.646 229.055C361.643 227.673 363.452 225.591 364.22 223.271C364.595 222.145 363.11 221.377 362.513 222.469C361.643 224.056 360.806 225.523 359.424 226.734C358.605 227.468 357.359 228.406 356.096 228.833C357.956 223.714 358.827 218.289 358.537 212.898C362.769 209.332 363.742 202.2 362.581 197.116C362.325 195.99 360.841 196.127 360.806 197.287C360.687 200.17 361.079 202.968 360.363 205.817C359.936 207.455 359.219 208.82 358.298 210.083C357.837 206.568 356.898 203.105 355.396 199.744C354.355 197.457 350.857 198.686 351.693 201.108C353.758 207.029 354.662 212.949 354.27 218.801C350.805 214.655 348.826 209.878 348.911 204.231C348.911 203.105 347.238 202.934 347.153 204.077C346.692 210.509 349.047 217.214 354.014 221.428C353.399 225.847 352.034 230.198 349.781 234.463C349.781 234.463 349.781 234.48 349.781 234.497C342.801 227.929 337.34 220.063 332.817 211.499C334.865 208.496 336.503 205.237 337.783 201.842C343.415 200.494 348.211 196.263 350.123 190.735C350.549 189.49 348.723 188.569 348.245 189.848C346.47 194.438 343.04 197.85 338.603 199.522C340.087 194.83 340.855 189.899 340.873 184.969C343.825 183.86 346.419 181.829 348.279 179.27C350.822 180.993 355.874 178.673 356.898 176.131C357.205 175.363 356.284 174.305 355.533 174.988C354.236 176.165 351.334 178.878 349.355 177.598C350.327 175.841 350.976 173.896 351.181 171.883C351.317 170.62 349.457 170.262 349.201 171.542C348.177 176.711 345.259 180.618 340.821 183.024C340.668 179.1 340.053 175.193 338.927 171.439C340.719 168.453 341.18 164.956 340.634 161.527C342.443 158.882 343.518 153.491 340.907 151.017C340.343 150.488 339.593 151.068 339.593 151.699C339.593 153.116 340.275 154.446 340.292 155.897C340.292 156.835 340.156 157.722 339.917 158.575C339.081 156.084 337.715 153.73 335.94 151.819C335.394 151.222 334.302 152.007 334.643 152.723C337.306 158.132 339.968 163.369 338.057 168.795C337.271 166.662 336.316 164.598 335.206 162.602C334.097 160.639 330.803 162.363 331.708 164.427C335.616 173.299 337.135 182.29 336.094 191.145C333.67 187.664 332.22 184.013 331.708 179.424C331.605 178.434 329.95 178.485 329.95 179.492C329.95 184.679 332.015 190.206 335.667 194.011C334.814 198.652 333.261 203.241 330.923 207.745C327.287 200.272 324.301 192.339 321.621 184.32C322.884 182.034 323.738 179.475 324.079 176.882C324.25 176.899 324.437 176.882 324.625 176.728C327.1 174.886 328.755 172.002 328.687 168.863C328.67 167.805 326.929 167.72 326.81 168.795C326.554 171.166 325.854 173.333 324.215 175.056C324.318 172.122 323.721 169.17 322.253 166.526C321.741 165.621 320.41 166.423 320.7 167.345C322.338 172.429 322.748 177.189 320.836 181.983C319.727 178.622 318.669 175.244 317.628 171.883C316.809 169.238 312.798 170.74 313.6 173.367C315.58 179.816 317.696 186.572 320.154 193.312C317.355 192.271 314.505 191.264 312.081 189.746C313.412 185.242 313.276 178.878 310.118 175.602C309.726 175.193 308.975 175.619 309.06 176.165C309.436 178.571 310.613 180.703 310.869 183.177C311.057 185.054 310.886 186.845 310.562 188.654C308.514 187.016 306.927 184.883 306.21 181.778C305.664 179.458 302.063 180.021 302.524 182.409C302.967 184.644 303.872 186.658 305.118 188.449C304.043 188.637 303.002 188.722 301.858 188.296C300.407 187.75 299.264 186.624 298.581 185.242C298.069 184.201 296.465 184.935 296.96 185.992C298.479 189.336 302.865 191.878 306.381 190.087C310.255 194.506 316.297 197.253 322.048 198.259C326.895 210.748 333.005 222.93 341.487 232.74C335.138 233.388 328.994 232.74 323.294 230.965C325.239 226.802 325.461 220.507 321.826 217.538C321.195 217.009 320.358 217.675 320.58 218.408C321.212 220.541 322.287 222.264 322.475 224.533C322.236 224.533 321.997 224.533 321.758 224.448C321.161 224.277 320.614 223.936 320.205 223.458C319.437 222.537 318.174 223.68 318.805 224.636C319.539 225.745 321.024 226.581 322.441 226.615C322.304 227.911 321.946 229.14 321.451 230.351C317.867 229.055 314.47 227.314 311.347 225.148C314.982 218.494 314.948 210.475 310.955 203.941C310.255 202.78 308.651 203.975 309.265 205.118C311.057 208.462 311.945 211.959 311.893 215.474C311.62 215.286 311.364 215.081 311.125 214.86C310.443 214.194 309.897 213.444 309.504 212.574C309.094 211.652 307.797 212.301 308.105 213.222C308.702 214.979 310.016 216.839 311.74 217.709C311.467 219.859 310.835 221.991 309.845 224.073C306.722 221.718 303.889 218.954 301.414 215.815C302.421 213.034 302.916 209.895 302.746 206.824C305.033 203.821 306.176 199.692 305.442 195.956C305.203 194.745 303.497 194.881 303.531 196.144C303.599 198.908 303.275 201.33 302.336 203.736C301.875 201.603 301.073 199.556 299.861 197.764C299.264 196.894 297.865 197.628 298.24 198.618C300.22 203.941 301.244 208.632 300.117 214.058C297.779 210.782 295.799 207.131 294.28 203.173C293.512 201.16 290.645 202.576 291.277 204.538C292.028 206.875 292.966 209.11 294.042 211.243C292.813 211.192 291.533 211.294 290.287 210.816C288.119 209.963 286.481 208.24 285.457 206.176C284.945 205.169 283.409 205.868 283.853 206.909C284.894 209.349 286.669 211.311 289.109 212.42C290.714 213.154 293.274 213.87 295.083 213.188C297.045 216.651 299.418 219.79 302.131 222.571C300.851 222.844 299.571 222.964 298.291 222.947C297.353 220.387 295.1 218.067 292.796 216.788C291.891 216.293 291.038 217.47 291.874 218.118C292.949 218.937 293.973 219.876 294.827 220.933C295.287 221.514 295.663 222.128 296.021 222.759C293.786 222.418 291.618 221.633 289.57 220.319C288.666 219.739 287.71 221.087 288.614 221.718C293.069 224.84 298.65 225.83 303.804 224.243C306.193 226.478 308.821 228.423 311.62 230.112C305.971 231.818 301.295 230.727 295.492 228.713C294.639 228.423 293.751 229.481 294.571 230.146C296.602 231.767 299.093 232.723 301.739 233.132C301.244 233.49 300.715 233.832 300.151 234.053C299.588 234.275 299.025 234.378 298.411 234.326C297.83 234.292 297.506 234.19 297.045 234.582C296.755 234.821 296.687 235.111 296.772 235.452C296.789 235.538 296.806 235.606 296.823 235.691C296.909 236.05 297.301 236.306 297.66 236.374C300.373 236.92 302.575 235.248 304.282 233.337C307.644 233.422 311.074 232.689 313.924 231.409C323.14 236.288 334.012 238.216 344.917 236.442C350.976 242.533 358.144 247.446 366.763 250.603C366.49 260.328 365.943 270.018 365.244 279.675C362.854 279.231 360.567 278.651 358.417 277.883C360.516 271.281 359.646 263.962 356.335 257.871C355.772 256.83 353.997 257.751 354.492 258.826C356.028 262.068 356.898 265.275 357.188 268.517C355.157 267.561 353.69 265.77 353.263 263.484C353.058 262.375 351.437 262.665 351.539 263.774C351.881 267.05 354.167 269.694 357.257 270.581C357.257 272.731 357.018 274.898 356.54 277.133C352.461 275.461 348.826 273.209 345.651 270.428C347.563 267.203 348.638 263.723 348.86 260.225C350.669 258.297 351.949 255.909 352.683 253.384C353.229 251.507 353.86 248.743 351.983 247.446C351.3 246.969 350.208 247.532 350.566 248.436C351.727 251.302 350.43 254.39 348.809 257.052C348.45 252.991 346.914 248.999 344.149 245.484C343.33 244.427 341.641 245.587 342.443 246.679C344.252 249.187 345.481 251.831 346.18 254.561C343.125 254.22 340.702 252.497 339.422 249.545C338.978 248.538 337.596 249.238 337.903 250.244C339.098 254.015 342.699 256.574 346.59 256.642C347.204 260.839 346.487 265.139 344.388 269.268C339.046 264.132 335.121 257.427 332.766 249.443C332.134 247.31 328.875 247.736 329.267 250.04C329.95 253.981 331.23 257.717 332.988 261.181C331.162 261.061 329.455 260.822 327.697 259.662C327.492 259.526 327.322 259.372 327.117 259.236C328.107 256.642 328.482 252.548 326.298 250.603C325.751 250.108 324.932 250.603 324.966 251.302C325.018 252.616 325.717 253.827 325.82 255.158C325.888 256.045 325.837 256.984 325.683 257.888C324.198 256.182 323.328 254.015 323.072 251.695C322.953 250.603 321.365 250.927 321.417 251.985C321.587 255.567 323.243 258.929 326.161 261.078C328.226 262.597 331.452 263.791 334.182 263.364C335.292 265.224 336.538 266.998 337.92 268.67C334.507 269.677 331.042 269.421 327.765 267.613C326.775 267.067 325.769 268.466 326.758 269.08C330.615 271.503 335.206 272.014 339.388 270.342C341.35 272.475 343.535 274.42 345.89 276.109C344.747 276.655 343.603 277.133 342.238 277.303C340.156 277.559 338.227 277.167 336.265 276.553C335.377 276.28 334.558 277.61 335.479 278.105C339.063 280.016 344.354 279.845 347.819 277.44C352.956 280.75 358.81 283.002 364.954 283.872C363.93 297.162 362.615 310.419 361.318 323.744C361.097 325.979 364.373 326.2 364.749 324.051C366.063 316.578 367.087 309.02 367.923 301.428C381.099 292.181 392.431 279.265 401.306 264.661C403.695 264.508 406.05 264.098 408.354 263.484C411.204 267.715 416.068 269.66 421.205 268.432C422.298 268.176 421.871 266.248 420.762 266.487C416.666 267.374 412.74 266.128 410.266 262.921C414.447 261.59 418.441 259.577 422.11 257.052C423.714 257.82 425.404 258.417 427.127 258.86C427.691 262.528 429.978 265.668 433.152 267.613C434.227 268.278 435.063 266.487 434.005 265.838C431.531 264.32 429.961 262 429.193 259.321C432.452 259.918 435.814 259.969 439.091 259.509C440.32 264.047 445.713 268.107 450.27 265.224C450.952 264.798 450.492 263.757 449.741 263.808C447.573 263.945 445.73 264.286 443.75 263.074C442.3 262.17 441.344 260.788 440.866 259.201C444.348 258.519 447.71 257.257 450.714 255.431C452.54 254.322 450.918 251.132 448.956 252.07L448.87 252.002ZM372.924 183.655C377.31 184.798 382.498 184.116 385.792 180.84C386.594 180.038 385.399 179.014 384.563 179.475C381.303 181.3 378.18 182.409 374.682 181.983C376.9 179.765 378.761 177.291 380.228 174.613C381.508 174.783 382.891 174.783 384.239 174.578C386.236 176.302 390.332 177.615 392.226 175.329C392.704 174.749 392.209 174.05 391.543 174.015C390.434 173.981 389.41 174.476 388.267 174.34C387.738 174.271 387.26 174.118 386.799 173.93C389.12 173.094 391.1 171.559 392.038 169.221C392.311 168.522 391.492 167.583 390.81 168.181C389.308 169.494 388.198 170.979 386.338 171.866C384.666 172.668 382.891 172.924 381.116 172.821C382.379 170.143 383.3 167.293 383.812 164.376C385.741 163.233 387.447 161.68 388.796 159.889C388.915 159.735 389.035 159.565 389.154 159.394C392.363 159.223 395.52 157.841 397.534 155.299C397.995 158.524 399.343 161.612 401.749 163.574C401.237 166.287 400.538 168.965 399.684 171.576C398.438 169.051 397.585 166.543 397.295 163.54C397.193 162.516 395.469 162.567 395.486 163.608C395.52 167.276 396.51 171.234 398.763 174.22C393.54 188.159 383.556 200.221 370.398 207.677C370.108 200.58 369.698 193.482 369.186 186.402C370.5 185.549 371.763 184.644 372.907 183.638L372.924 183.655Z" fill="#FEFDF9"/>
<path d="M1026.41 233.081C1021.61 235.368 1017.05 236.511 1012.43 236.579C1014.2 234.31 1016.42 233.081 1019.49 232.774C1020.54 232.672 1020.69 230.915 1019.56 230.863C1015.81 230.693 1011.81 233.03 1010.3 236.528C1007.96 236.391 1005.59 235.999 1003.14 235.333C1006.06 232.911 1008.71 230.181 1011.01 227.212C1015.42 228.731 1020.31 227.69 1023.78 224.534C1024.73 223.664 1023.59 221.992 1022.62 222.862C1019.68 225.472 1015.93 226.445 1012.17 225.66C1014.15 222.896 1015.84 219.961 1017.17 216.924C1018.21 214.536 1014.63 212.813 1013.5 215.184C1010.69 221.139 1007.04 226.001 1002.68 229.942C1002.12 226.001 1002.39 221.497 1005.48 218.818C1006.44 217.982 1005.43 216.447 1004.34 217.18C999.919 220.098 999.902 226.735 1000.93 231.495C995.362 236.05 988.74 239.206 981.316 241.322C985.344 234.173 988.774 226.7 991.573 219.091C997.854 217.556 1004.15 213.529 1006.87 207.541C1007.26 206.654 1006.03 205.784 1005.4 206.585C1003.74 208.752 1002.02 210.697 1000.14 212.369C1000.11 207.78 1001.78 204.043 1005.38 200.836C1006.22 200.085 1005.35 198.737 1004.36 199.386C999.748 202.354 997.239 208.53 998.28 213.888C996.488 215.201 994.526 216.276 992.29 217.061C995.447 208.104 997.7 199.01 998.946 190.156C999.322 187.511 995.345 186.795 994.85 189.439C993.792 195.001 992.512 200.478 990.993 205.869C990.549 204.623 989.576 203.514 989.133 202.252C988.382 200.051 988.365 197.953 988.535 195.666C988.604 194.711 987.085 194.301 986.846 195.291C986.248 197.697 986.487 200.239 987.238 202.576C987.802 204.316 988.689 206.807 990.549 207.404C989.594 210.646 988.552 213.853 987.392 217.027C986.948 216.242 986.521 215.44 986.197 214.57C985.361 212.335 984.934 210.015 984.764 207.643C984.695 206.722 983.142 206.79 983.142 207.711C983.194 211.516 984.081 216.225 986.47 219.501C985.685 221.565 984.849 223.612 983.962 225.66C980.139 218.358 977.647 210.612 976.64 202.559C978.739 201.126 980.514 199.334 981.931 197.185C983.262 195.172 985.122 192.118 984.678 189.61C984.593 189.166 983.979 188.842 983.654 189.285C982.323 191.145 981.948 193.636 980.719 195.632C979.558 197.526 978.074 199.13 976.401 200.529C976.111 197.321 976.043 194.08 976.23 190.804C976.367 188.484 972.783 188.159 972.629 190.497C972.237 196.229 972.527 201.894 973.5 207.404C971.844 206.654 970.377 205.562 969.318 204.06C968.055 202.269 968.072 200.307 967.219 198.396C966.98 197.867 966.093 197.697 965.854 198.328C965.052 200.597 966.28 203.429 967.646 205.306C966.298 205.528 964.983 205.528 963.618 205.084C962.065 204.572 961.126 203.224 959.693 202.696C959.181 202.508 958.413 202.832 958.549 203.497C958.942 205.425 961.246 206.568 962.97 207.114C964.966 207.763 967.151 207.78 969.079 206.944C970.445 208.223 972.083 209.093 973.909 209.571C974.541 212.608 975.377 215.594 976.435 218.511C974.575 218.648 972.697 218.426 970.94 217.743C968.806 216.924 967.39 215.406 965.598 214.109C964.983 213.666 963.789 214.229 964.232 215.065C966.485 219.467 972.51 221.053 977.186 220.439C978.5 223.749 980.087 226.956 981.948 230.079C980.395 233.337 978.722 236.545 976.896 239.701C972.971 246.491 968.516 252.65 963.669 258.468C963.226 255.5 962.884 252.565 962.662 249.665C966.639 247.071 970.001 242.653 970.052 237.858C970.052 237.04 968.67 236.767 968.414 237.568C967.1 241.578 965.598 244.973 962.526 247.532C962.338 243.966 962.372 240.401 962.628 236.784C966.519 235.18 969.762 231.58 970.581 227.434C970.803 226.342 969.028 225.711 968.67 226.82C967.543 230.181 965.7 232.894 962.816 234.685C963.072 231.955 963.482 229.191 964.028 226.359C964.42 224.363 961.024 223.595 960.512 225.592C960.017 227.536 959.59 229.533 959.249 231.546C956.16 228.185 954.948 224.261 955.58 219.432C955.716 218.409 954.061 218.016 953.788 219.04C952.303 224.414 954.436 230.659 958.856 234.054C958.515 236.477 958.276 238.933 958.174 241.39C955.631 239.667 953.941 237.295 953.617 234.003C953.498 232.808 951.74 233.15 951.808 234.31C952.013 238.217 954.505 242.055 958.123 243.659C958.071 247.549 958.31 251.439 958.925 255.261C956.296 254.459 954.283 252.753 953.31 249.989C952.968 249.016 951.279 249.528 951.569 250.518C952.593 254.066 955.614 256.899 959.3 257.393C959.625 259.014 960 260.618 960.461 262.205C955.887 267.391 951.006 272.339 945.92 277.235C947.678 259.117 948.292 240.793 948.497 222.759C948.616 212.83 948.497 202.917 948.139 193.005C959.044 187.255 967.987 178.759 974.302 168.624C975.752 168.369 977.22 168.044 978.654 167.669C979.439 169.188 980.616 170.45 982.152 171.252C983.586 172.003 986.078 172.804 987.392 171.576C987.614 171.371 987.58 170.894 987.324 170.723C986.214 169.989 984.73 170.279 983.467 169.768C983.979 169.358 984.542 169.034 985.19 168.812C986.027 168.522 986.88 168.659 987.665 168.232C988.297 167.891 988.006 167.072 987.546 166.782C986.641 166.202 985.139 166.68 984.2 167.038C983.262 167.413 982.477 167.993 981.794 168.727C981.248 168.283 980.77 167.771 980.378 167.174C983.33 166.287 986.231 165.127 989.013 163.745C992.768 168.659 1000.38 167.516 1005.35 164.786C1006.28 164.274 1005.45 162.738 1004.49 163.148C1001.69 164.325 998.793 165.178 996.096 164.973C996.506 164.717 996.932 164.445 997.342 164.154C997.871 163.779 998.383 163.387 998.929 163.063C999.578 162.687 1000.36 162.585 1000.91 162.09C1001.3 161.732 1001.42 160.947 1000.79 160.725C998.315 159.855 995.669 163.301 993.485 164.41C992.563 164.052 991.693 163.506 990.874 162.773C994.253 160.913 997.41 158.695 1000.26 156.136C1003.3 159.173 1008.06 160.828 1012.19 159.139C1013.09 158.763 1012.84 157.279 1011.8 157.415C1008.01 157.893 1004.49 157.449 1001.63 154.89C1003.11 153.457 1004.48 151.922 1005.74 150.301C1011.52 150.898 1018.38 149.755 1022.69 145.831C1023.27 145.302 1022.52 144.364 1021.85 144.637C1019.92 145.421 1018.15 146.394 1016.23 147.145C1016.68 146.684 1017.12 146.206 1017.51 145.677C1018.68 144.176 1020.13 142.214 1020.16 140.269C1020.16 139.535 1019.17 139.348 1018.74 139.825C1017.53 141.19 1016.99 143.135 1015.83 144.62C1014.73 146.001 1013.45 147.179 1012.07 148.254C1010.41 148.527 1008.73 148.612 1007.05 148.561C1008.2 146.923 1009.24 145.217 1010.14 143.408C1011.13 141.446 1008.13 139.399 1006.83 141.276C1004.83 144.193 1002.7 146.889 1000.43 149.363C1000.04 147.349 999.919 145.421 1000.02 143.511C1000.52 142.521 1001.15 141.6 1001.93 140.798C1002.39 140.303 1002.92 139.859 1003.47 139.467C1004.01 139.075 1004.56 138.853 1004.82 138.187C1004.97 137.778 1004.78 137.334 1004.32 137.249C1002.96 136.993 1001.47 138.563 1000.6 139.45C1000.6 139.45 1000.6 139.45 1000.58 139.467C1000.84 138.324 1001.15 137.164 1001.54 135.952C1001.88 134.878 1000.52 134.178 999.936 135.185C997.239 139.842 997.052 145.984 998.758 151.086C992.717 157.142 985.6 161.612 976.947 163.933C977.886 162.124 978.739 160.265 979.524 158.371C984.252 157.535 990.276 155.061 991.983 150.813C992.171 150.352 991.71 149.635 991.164 149.926C989.303 150.881 987.887 152.502 986.129 153.662C986.522 152.399 986.999 151.222 987.853 150.079C988.723 148.919 990.737 147.963 990.942 146.496C990.993 146.172 990.788 145.933 990.481 145.831C988.706 145.302 986.675 148.134 985.822 149.397C984.764 150.966 983.825 153.014 983.74 154.959C982.664 155.453 981.555 155.812 980.412 156.119C981.692 152.655 982.699 149.09 983.398 145.421C988.535 144.159 993.16 140.371 994.543 135.151C994.799 134.178 993.314 133.769 992.905 134.622C992.034 136.43 990.959 138.085 989.679 139.467C989.679 138.665 989.764 137.863 989.918 137.079C990.191 135.679 990.891 134.451 991.232 133.069C991.454 132.182 990.293 131.824 989.747 132.37C987.699 134.468 987.358 138.273 987.819 141.156C986.624 142.094 985.276 142.828 983.774 143.34C984.422 139.262 984.712 135.082 984.593 130.868C984.525 128.138 980.292 128.548 980.36 131.261C980.463 134.895 980.241 138.495 979.729 142.043C978.756 140.474 977.835 138.955 977.374 137.044C976.759 134.571 976.879 132.148 977.34 129.657C977.527 128.616 975.804 128.241 975.514 129.265C975.07 130.834 974.848 132.591 974.899 134.383C974.626 134.349 974.336 134.417 974.114 134.656C972.322 136.601 970.411 137.897 968.004 138.46C969.062 136.584 969.847 134.434 969.523 132.54C969.404 131.841 968.499 131.653 968.158 132.301C966.861 134.775 966.554 137.42 964.813 139.74C963.908 140.951 962.85 141.992 961.69 142.879C961.963 140.03 961.877 137.13 961.416 134.229C965.137 131.005 967.373 126.006 966.912 121.058C966.792 119.744 964.915 119.966 964.898 121.246C964.864 125.375 963.567 128.992 960.956 131.875C960.648 130.561 960.307 129.23 959.846 127.934C958.959 125.392 955.085 126.825 955.921 129.384C959.13 139.296 957.594 148.799 952.286 156.545C952.183 155.573 952.081 154.617 952.047 153.645C951.979 151.7 952.2 149.738 952.456 147.81C952.576 146.855 951.04 146.496 950.784 147.452C949.879 150.83 949.538 155.078 950.852 158.456C949.538 160.111 948.036 161.664 946.347 163.114C946.039 159.377 945.715 155.624 945.357 151.888C947.644 150.011 949.333 147.52 950.272 144.773C952.747 143.698 955.392 141.02 955.409 138.205C955.409 137.198 954.027 137.164 953.617 137.897C953.02 138.972 952.764 140.098 951.961 141.088C951.637 141.48 951.279 141.839 950.903 142.18C951.262 139.894 951.108 137.522 950.357 135.236C950.033 134.229 948.326 134.588 948.514 135.662C949.521 141.088 948.514 145.711 945.118 149.465C944.742 145.728 944.333 141.992 943.889 138.273C943.565 135.56 939.349 135.952 939.656 138.665C940.049 141.992 940.407 145.336 940.749 148.663C937.881 147.332 935.202 146.036 932.813 144.057C934.127 140.115 934.775 135.645 932.062 132.216C931.277 131.227 929.843 132.25 930.475 133.325C932.25 136.379 931.976 139.433 931.208 142.555C930.628 141.941 930.065 141.276 929.536 140.542C928.017 138.426 926.976 136.174 926.293 133.837C928.119 132.643 929.792 130.971 931.089 129.043C934.315 128.429 937.062 125.136 937.865 122.065C938.103 121.143 936.789 120.615 936.226 121.297C935.304 122.406 934.827 123.822 933.922 124.948C933.547 125.426 933.086 125.852 932.608 126.245C933.512 124.112 933.905 121.809 933.564 119.574C933.427 118.635 931.959 118.465 931.806 119.506C931.106 124.556 929.707 128.582 925.832 131.858C925.116 128.173 925.286 124.334 926.088 120.529C926.481 118.704 923.392 118.021 922.897 119.83C922.18 122.406 921.907 125.187 922.027 128.002C921.173 127.49 920.354 126.961 919.688 126.091C918.426 124.453 917.948 122.269 918.101 120.222C918.187 119.062 916.514 118.943 916.326 120.069C915.934 122.44 916.395 124.76 917.777 126.757C918.784 128.207 920.422 129.793 922.214 130.271C922.76 134.963 924.399 139.621 926.993 143.493C926.6 143.664 926.191 143.818 925.73 143.886C924.416 144.074 923.136 143.784 921.992 143.118C921.054 142.589 920.081 143.92 921.02 144.534C922.965 145.814 926.071 146.394 928.256 145.217C931.447 149.209 935.799 152.092 941.158 152.809C943.343 175.364 944.486 198.004 944.367 220.678C944.367 222.879 944.299 225.08 944.265 227.281C938.82 224.653 934.041 221.463 929.775 217.812C929.877 217.709 929.98 217.59 930.065 217.453C931.123 215.679 932.045 213.853 932.83 211.96C934.383 211.874 935.953 211.004 937.182 210.151C939.179 208.769 940.988 206.688 941.756 204.368C942.131 203.241 940.646 202.474 940.049 203.566C939.179 205.152 938.342 206.62 936.96 207.831C936.141 208.565 934.895 209.503 933.632 209.929C935.492 204.811 936.363 199.386 936.072 193.994C940.305 190.429 941.278 183.297 940.117 178.213C939.861 177.087 938.376 177.223 938.325 178.383C938.206 181.267 938.598 184.065 937.881 186.914C937.455 188.552 936.738 189.917 935.816 191.179C935.356 187.665 934.417 184.201 932.915 180.84C931.874 178.554 928.375 179.782 929.212 182.205C931.277 188.125 932.181 194.046 931.789 199.897C928.324 195.752 926.344 190.975 926.43 185.327C926.43 184.201 924.757 184.031 924.672 185.174C924.211 191.606 926.566 198.311 931.533 202.525C930.918 206.944 929.553 211.294 927.3 215.56C927.3 215.56 927.3 215.577 927.3 215.594C920.32 209.025 914.859 201.16 910.336 192.595C912.384 189.593 914.022 186.334 915.302 182.939C920.934 181.591 925.73 177.36 927.641 171.832C928.068 170.587 926.242 169.665 925.764 170.945C923.989 175.534 920.559 178.946 916.121 180.618C917.606 175.927 918.374 170.996 918.391 166.065C921.344 164.956 923.938 162.926 925.798 160.367C928.341 162.09 933.393 159.77 934.417 157.228C934.724 156.46 933.803 155.402 933.052 156.085C931.755 157.262 928.853 159.975 926.874 158.695C927.846 156.938 928.495 154.993 928.7 152.979C928.836 151.717 926.976 151.359 926.72 152.638C925.696 157.808 922.778 161.715 918.34 164.12C918.187 160.196 917.572 156.289 916.446 152.536C918.238 149.55 918.699 146.053 918.152 142.623C919.961 139.979 921.037 134.588 918.426 132.114C917.862 131.585 917.111 132.165 917.111 132.796C917.111 134.212 917.794 135.543 917.811 136.993C917.811 137.932 917.675 138.819 917.436 139.672C916.599 137.181 915.234 134.826 913.459 132.916C912.913 132.318 911.821 133.103 912.162 133.82C914.824 139.228 917.487 144.466 915.575 149.891C914.79 147.759 913.835 145.694 912.708 143.698C911.599 141.736 908.305 143.476 909.21 145.524C913.118 154.396 914.637 163.387 913.596 172.241C911.172 168.761 909.722 165.11 909.21 160.52C909.107 159.531 907.452 159.582 907.452 160.589C907.452 165.775 909.517 171.303 913.169 175.108C912.316 179.748 910.763 184.338 908.425 188.842C904.789 181.369 901.803 173.436 899.123 165.417C900.386 163.131 901.239 160.572 901.581 157.978C901.751 157.995 901.956 157.978 902.127 157.825C904.602 155.982 906.257 153.099 906.189 149.96C906.172 148.902 904.431 148.817 904.311 149.891C904.055 152.263 903.356 154.43 901.717 156.153C901.82 153.218 901.222 150.267 899.755 147.622C899.243 146.718 897.911 147.52 898.201 148.441C899.84 153.525 900.25 158.285 898.338 163.08C897.229 159.719 896.171 156.34 895.13 152.979C894.31 150.335 890.3 151.836 891.102 154.464C893.082 160.913 895.198 167.669 897.655 174.408C894.856 173.367 892.006 172.361 889.583 170.842C890.914 166.338 890.778 159.975 887.62 156.699C887.228 156.289 886.477 156.716 886.562 157.262C886.937 159.667 888.115 161.8 888.371 164.274C888.559 166.151 888.388 167.942 888.064 169.751C886.016 168.113 884.429 165.98 883.712 162.875C883.166 160.555 879.565 161.118 880.026 163.506C880.469 165.741 881.374 167.754 882.62 169.546C881.544 169.733 880.503 169.819 879.36 169.392C877.909 168.846 876.766 167.72 876.083 166.338C875.571 165.298 873.967 166.031 874.462 167.089C875.981 170.433 880.367 172.975 883.883 171.184C887.757 175.602 893.798 178.349 899.55 179.356C904.397 191.845 910.507 204.026 918.989 213.836C912.64 214.485 906.479 213.836 900.796 212.062C902.741 207.899 902.963 201.604 899.328 198.635C898.696 198.106 897.86 198.771 898.082 199.505C898.713 201.638 899.789 203.361 899.976 205.63C899.738 205.63 899.499 205.63 899.26 205.545C898.662 205.374 898.116 205.033 897.707 204.555C896.939 203.634 895.676 204.777 896.307 205.732C897.041 206.841 898.526 207.677 899.942 207.711C899.806 209.008 899.447 210.237 898.952 211.448C895.368 210.151 891.972 208.411 888.849 206.244C892.484 199.59 892.45 191.572 888.456 185.037C887.757 183.877 886.153 185.071 886.767 186.214C888.559 189.558 889.446 193.056 889.395 196.571C889.122 196.383 888.866 196.178 888.627 195.956C887.944 195.291 887.398 194.54 887.006 193.67C886.596 192.749 885.299 193.397 885.606 194.319C886.204 196.076 887.518 197.935 889.241 198.806C888.968 200.955 888.337 203.088 887.347 205.169C884.224 202.815 881.391 200.051 878.916 196.912C879.923 194.114 880.418 190.992 880.247 187.921C882.534 184.918 883.678 180.789 882.944 177.053C882.705 175.841 880.998 175.978 881.032 177.24C881.101 180.004 880.777 182.427 879.838 184.833C879.377 182.7 878.575 180.653 877.363 178.861C876.766 177.991 875.366 178.725 875.742 179.714C877.722 185.037 878.746 189.729 877.619 195.155C875.281 191.879 873.301 188.228 871.782 184.27C870.997 182.256 868.147 183.672 868.779 185.634C869.547 187.972 870.468 190.207 871.543 192.339C870.315 192.288 869.035 192.391 867.789 191.913C865.621 191.06 863.983 189.337 862.959 187.272C862.447 186.266 860.911 186.965 861.355 188.006C862.396 190.446 864.171 192.408 866.611 193.517C868.215 194.25 870.775 194.967 872.584 194.284C874.547 197.748 876.919 200.887 879.633 203.668C878.353 203.941 877.073 204.06 875.793 204.043C874.854 201.484 872.602 199.164 870.298 197.884C869.393 197.39 868.54 198.567 869.376 199.215C870.451 200.034 871.475 200.972 872.328 202.03C872.789 202.61 873.165 203.224 873.523 203.856C871.287 203.514 869.12 202.73 867.072 201.416C866.167 200.836 865.212 202.184 866.116 202.815C870.571 205.937 876.151 206.927 881.306 205.34C883.695 207.575 886.323 209.52 889.122 211.209C883.473 212.915 878.797 211.823 872.994 209.81C872.141 209.52 871.253 210.578 872.072 211.243C874.103 212.864 876.595 213.819 879.24 214.229C878.746 214.587 878.216 214.928 877.653 215.15C877.09 215.389 876.527 215.474 875.912 215.423C875.332 215.389 875.008 215.287 874.547 215.679C874.257 215.918 874.189 216.208 874.274 216.549C874.291 216.634 874.308 216.703 874.325 216.788C874.411 217.146 874.803 217.402 875.161 217.47C877.875 218.016 880.077 216.344 881.783 214.434C885.146 214.519 888.576 213.785 891.426 212.506C900.642 217.385 911.513 219.313 922.419 217.539C928.478 223.63 935.646 228.543 944.265 231.699C943.991 241.424 943.445 251.115 942.746 260.772C940.356 260.328 938.069 259.748 935.919 258.98C938.018 252.377 937.148 245.058 933.837 238.967C933.274 237.927 931.499 238.848 931.994 239.923C933.53 243.164 934.417 246.372 934.69 249.614C932.659 248.658 931.191 246.867 930.765 244.581C930.56 243.472 928.939 243.762 929.041 244.871C929.382 248.146 931.669 250.791 934.758 251.678C934.758 253.828 934.519 255.994 934.041 258.229C929.963 256.557 926.327 254.305 923.153 251.524C925.064 248.283 926.14 244.819 926.361 241.322C928.171 239.394 929.451 237.005 930.185 234.48C930.731 232.604 931.362 229.84 929.485 228.543C928.802 228.065 927.71 228.628 928.068 229.533C929.229 232.399 927.932 235.487 926.31 238.148C925.952 234.088 924.416 230.096 921.651 226.581C920.832 225.523 919.142 226.683 919.945 227.775C921.754 230.283 922.982 232.928 923.682 235.658C920.644 235.316 918.204 233.593 916.924 230.642C916.48 229.635 915.098 230.335 915.405 231.341C916.599 235.112 920.201 237.671 924.092 237.739C924.706 241.936 923.989 246.235 921.89 250.364C916.548 245.229 912.623 238.524 910.268 230.539C909.636 228.407 906.376 228.833 906.769 231.136C907.452 235.077 908.732 238.814 910.49 242.277C908.663 242.158 906.957 241.919 905.199 240.759C904.994 240.622 904.823 240.469 904.619 240.332C905.608 237.739 905.984 233.644 903.782 231.699C903.236 231.205 902.417 231.699 902.451 232.399C902.502 233.713 903.202 234.924 903.305 236.255C903.373 237.142 903.322 238.08 903.168 238.984C901.683 237.278 900.813 235.112 900.557 232.791C900.437 231.699 898.85 232.024 898.901 233.081C899.072 236.664 900.727 240.025 903.646 242.175C905.711 243.693 908.936 244.888 911.667 244.461C912.776 246.321 914.022 248.095 915.405 249.767C911.991 250.774 908.527 250.518 905.25 248.709C904.26 248.163 903.253 249.562 904.243 250.177C908.1 252.599 912.691 253.111 916.872 251.439C918.835 253.572 921.02 255.517 923.375 257.206C922.231 257.752 921.088 258.229 919.723 258.4C917.641 258.656 915.712 258.264 913.749 257.649C912.862 257.376 912.043 258.707 912.964 259.202C916.548 261.113 921.839 260.942 925.303 258.537C930.44 261.846 936.294 264.098 942.438 264.969C941.414 278.259 940.1 291.516 938.803 304.84C938.581 307.075 941.858 307.297 942.234 305.147C943.548 297.675 944.572 290.117 945.408 282.524C958.583 273.277 969.916 260.362 978.79 245.758C981.18 245.604 983.535 245.195 985.839 244.581C988.689 248.812 993.553 250.757 998.69 249.528C999.782 249.272 999.356 247.344 998.246 247.583C994.15 248.47 990.225 247.225 987.75 244.018C991.932 242.687 995.925 240.674 999.595 238.148C1001.2 238.916 1002.89 239.513 1004.61 239.957C1005.18 243.625 1007.46 246.764 1010.64 248.726C1011.71 249.392 1012.55 247.6 1011.49 246.952C1009.02 245.434 1007.45 243.113 1006.68 240.435C1009.94 241.032 1013.3 241.083 1016.58 240.622C1017.8 245.161 1023.2 249.221 1027.75 246.338C1028.44 245.911 1027.98 244.871 1027.23 244.922C1025.06 245.058 1023.21 245.399 1021.24 244.188C1019.78 243.284 1018.83 241.902 1018.35 240.315C1021.83 239.633 1025.19 238.37 1028.2 236.545C1030.02 235.436 1028.4 232.245 1026.44 233.184L1026.41 233.081ZM950.46 164.735C954.846 165.878 960.034 165.195 963.328 161.919C964.13 161.118 962.935 160.094 962.099 160.555C958.856 162.38 955.716 163.489 952.218 163.063C954.436 160.845 956.296 158.371 957.764 155.692C959.044 155.863 960.427 155.863 961.775 155.658C963.772 157.381 967.868 158.695 969.762 156.409C970.24 155.829 969.745 155.129 969.079 155.095C967.97 155.061 966.946 155.556 965.803 155.419C965.274 155.351 964.796 155.197 964.335 155.01C966.656 154.174 968.636 152.638 969.574 150.301C969.847 149.601 969.028 148.663 968.346 149.26C966.844 150.574 965.734 152.058 963.874 152.945C962.202 153.747 960.427 154.003 958.652 153.901C959.915 151.222 960.836 148.39 961.348 145.456C963.277 144.312 964.983 142.76 966.332 140.968C966.451 140.815 966.571 140.644 966.69 140.474C969.899 140.303 973.056 138.921 975.07 136.379C975.531 139.604 976.879 142.692 979.285 144.654C978.773 147.366 978.074 150.045 977.22 152.655C975.974 150.13 975.121 147.622 974.831 144.62C974.728 143.596 973.005 143.647 973.022 144.688C973.056 148.356 974.046 152.314 976.299 155.3C971.076 169.239 961.092 181.301 947.934 188.757C947.644 181.659 947.234 174.562 946.722 167.481C948.036 166.628 949.299 165.724 950.443 164.718L950.46 164.735Z" fill="#FEFDF9"/>
<path d="M1240.03 81.0663C1241.16 78.6606 1237.42 76.8863 1236.31 79.2919C1232.83 86.7817 1228.53 95.0734 1220.06 96.899C1220.92 92.9578 1221.39 88.9314 1221.5 84.8879C1229 76.2038 1233.61 64.4999 1232.64 52.9325C1232.42 50.3051 1228.71 50.7998 1228.65 53.3078C1228.39 62.7938 1226.34 71.1026 1221.36 78.7459C1220.74 69.8742 1218.34 61.0706 1214.09 53.1543C1212.81 50.7828 1209.4 53.2055 1210.66 55.5599C1212.48 58.9721 1213.97 62.5549 1215.11 66.2572C1211.55 64.0393 1208.3 61.7019 1205.66 58.1873C1202.53 54.0244 1201.7 49.5714 1199.87 44.8796C1199.26 43.293 1196.37 43.2418 1196.27 45.2038C1195.76 55.9182 1206.14 68.3728 1216.2 71.222C1216.27 71.2391 1216.36 71.2561 1216.43 71.2561C1218.3 79.9402 1218.24 89.0338 1215.9 97.7008C1212.43 110.582 1204.8 120.46 1194.92 128.837C1194.73 121.842 1194.68 114.847 1194.75 107.835C1202.16 101.983 1206.68 92.5654 1207.76 83.3183C1208.06 80.6738 1204 79.9232 1203.66 82.6017C1202.67 90.3987 1199.58 96.6601 1194.85 102.427C1195.03 93.4185 1195.42 84.4273 1196.1 75.402C1196.31 72.7746 1192.23 72.0409 1192.04 74.6854C1190.98 88.9655 1190.43 103.297 1190.57 117.628C1182.52 108.04 1177.7 97.7179 1175.48 86.5258C1175.53 86.4746 1175.6 86.4405 1175.65 86.3723C1182.31 78.8824 1185.71 69.1747 1184.9 59.1598C1184.68 56.4812 1180.64 56.8907 1180.76 59.5522C1181.12 67.7245 1179.19 75.3337 1174.73 82.0217C1173.9 75.7944 1173.81 69.2941 1174.37 62.5208C1174.58 59.9958 1171.06 59.3133 1170.47 61.8384C1167.38 74.9072 1169.66 89.5968 1175.55 102.273C1164.42 101.471 1159.46 89.8527 1157.29 80.1279C1156.83 78.0806 1153.72 78.5924 1154.07 80.6738C1156.08 93.0602 1163.02 106.982 1177.55 106.436C1177.58 106.436 1177.62 106.436 1177.65 106.436C1180.25 111.162 1183.33 115.513 1186.85 119.317C1183.78 119.624 1180.81 120.017 1177.5 119.215C1172.75 118.089 1168.44 115.547 1165.09 112.015C1163.47 110.309 1160.67 112.612 1162.27 114.387C1168.42 121.211 1181.41 127.575 1190.64 123.002C1190.91 135.798 1191.75 148.577 1193.25 161.288C1193.49 163.386 1196.56 162.772 1196.42 160.742C1195.81 151.46 1195.33 142.213 1195.04 132.949C1199.82 130.032 1203.97 126.5 1207.45 122.474C1221.03 123.719 1233.75 115.99 1238.17 102.802C1239.01 100.311 1235.37 98.4515 1234.38 101.011C1230.3 111.674 1221.32 118.515 1210.18 119.027C1214.26 113.465 1217.25 107.204 1219.12 100.567C1229.99 100.106 1235.76 90.0575 1240.01 81.0663H1240.03Z" fill="#FEFDF9"/>
<path d="M1187.79 47.0126C1183.3 41.553 1177.26 36.8953 1170.26 35.9399C1170.18 35.9399 1170.07 35.9058 1169.99 35.9058C1162.87 35.0357 1154.88 39.028 1152.99 45.9548C1151.5 51.3802 1153.86 57.0104 1155.45 62.4358C1158.78 73.8156 1158.64 86.4067 1153.84 97.2746C1151.42 102.751 1147.87 107.716 1145.91 113.38C1144.01 118.857 1143.71 124.76 1142.2 130.356C1139.75 139.484 1133.86 147.588 1126.16 153.03C1126.08 149.379 1125.22 145.745 1123.62 142.469C1122.68 140.542 1121.5 138.682 1120.44 136.788C1118.94 134.127 1117.7 131.397 1117.78 128.394C1117.95 122.457 1123.23 117.884 1124.52 112.101C1125.14 109.371 1124.81 106.539 1124.8 103.724C1124.66 87.2427 1134.85 72.246 1136.28 55.8332C1136.86 49.1623 1136.01 42.4743 1135.14 35.8376C1134.32 29.6444 1133.45 23.2806 1130.39 17.8381C1127.97 13.5387 1124.32 10.0753 1120.55 6.88486C1115.53 2.6537 1109.08 -1.45803 1102.8 0.504001C1101.09 1.0329 1099.62 1.9542 1098.39 3.16553C1094.89 6.59482 1093.31 12.2079 1093.44 17.3092C1093.63 24.2019 1095.99 30.9069 1095.99 37.7825C1095.99 45.5794 1093 53.1205 1092.8 60.9174C1092.3 80.1623 1108.75 98.1618 1103.96 116.793C1102.52 122.354 1099.21 127.712 1100.03 133.41C1100.73 138.358 1104.21 141.906 1107.88 145.046C1107.63 144.943 1107.37 144.841 1107.15 144.773C1098.73 141.924 1088.73 142.691 1081.51 137.982C1080.76 137.488 1080.05 136.959 1079.36 136.345C1072.54 130.22 1072.09 119.573 1074.41 110.719C1076.72 101.864 1081.22 93.6065 1082.69 84.547C1083.6 78.8998 1083.26 73.0478 1081.72 67.5371C1078.41 55.7479 1068.32 45.2553 1056.09 44.5387C1051.89 44.2999 1047.35 45.3406 1044.55 48.4628C1043.23 49.913 1042.41 51.6703 1041.95 53.564C1041.41 55.8161 1041.41 58.2558 1041.75 60.5762C1043.85 74.9587 1057.13 85.8607 1059 100.277C1060.1 108.569 1057.21 117.014 1058.46 125.272C1059.82 134.434 1066.17 142.265 1073.87 147.434C1081.55 152.621 1090.53 155.487 1099.42 158.097C1102.85 159.104 1115.36 163.352 1121.14 162.465C1121.55 162.533 1122 162.567 1122.46 162.567C1122.46 162.567 1122.46 162.567 1122.47 162.567C1125.67 162.602 1129.86 161.39 1131.45 160.844C1133.11 160.281 1134.69 159.565 1136.23 158.746C1142.78 155.197 1148.3 149.618 1154.58 145.455C1158.21 143.032 1162.22 141.002 1165.18 137.778C1172.19 130.117 1171.37 118.192 1175.88 108.842C1180.4 99.4414 1190.04 93.2652 1194.51 83.8305C1200.18 71.9218 1196.17 57.181 1187.79 46.9955V47.0126Z" fill="#FEFDF9"/>
<path d="M1033.27 99.8849C1028.13 97.8376 1022.26 96.9333 1017.11 98.9124C1017.04 98.9465 1016.97 98.9636 1016.9 98.9977C1011.69 101.079 1007.75 106.829 1009.07 112.271C1010.11 116.537 1013.83 119.505 1016.95 122.61C1023.52 129.145 1028.16 137.812 1028.98 147.042C1029.39 151.699 1028.83 156.425 1029.63 161.032C1030.4 165.485 1032.41 169.648 1033.49 174.032C1035.25 181.198 1034.29 188.961 1031.07 195.581C1029.63 193.124 1027.69 190.957 1025.35 189.319C1023.98 188.347 1022.46 187.528 1021.03 186.624C1019 185.361 1017.12 183.979 1016.05 181.881C1013.93 177.769 1015.83 172.651 1014.51 168.215C1013.9 166.116 1012.62 164.291 1011.54 162.397C1005.24 151.171 1006.56 137.095 1001.35 125.323C999.236 120.546 996.13 116.298 993.041 112.084C990.157 108.16 987.153 104.133 983.006 101.574C979.729 99.5437 975.923 98.5541 972.151 97.8035C967.117 96.7968 961.16 96.4215 957.611 100.124C956.638 101.13 955.989 102.308 955.597 103.604C954.487 107.272 955.529 111.708 957.542 115.138C960.256 119.778 964.403 123.48 966.997 128.189C969.95 133.512 970.735 139.808 973.534 145.216C980.446 158.558 998.485 164.666 1002.22 179.219C1003.33 183.57 1003.09 188.483 1005.79 192.066C1008.13 195.171 1011.85 196.297 1015.53 197.065C1015.33 197.099 1015.11 197.116 1014.92 197.15C1008.09 198.362 1001.54 202.661 994.833 202.166C994.133 202.115 993.451 202.013 992.734 201.859C985.754 200.238 981.453 193.141 979.695 186.197C977.937 179.27 977.903 171.917 975.497 165.195C973.978 160.998 971.554 157.125 968.414 153.935C961.707 147.11 950.852 143.749 942.217 147.861C939.247 149.277 936.55 151.699 935.799 154.89C935.441 156.374 935.543 157.893 935.953 159.343C936.431 161.1 937.353 162.772 938.462 164.222C945.323 173.265 958.498 175.722 965.222 184.866C969.079 190.121 970.308 196.98 974.268 202.166C978.654 207.916 985.958 210.884 993.16 211.516C1000.36 212.164 1007.58 210.748 1014.65 209.195C1017.38 208.598 1027.53 206.773 1031.15 204.009C1031.46 203.906 1031.78 203.753 1032.09 203.582C1034.29 202.405 1036.7 199.999 1037.59 199.027C1038.51 198.02 1039.33 196.928 1040.06 195.785C1043.2 190.889 1044.87 185.003 1047.6 179.782C1049.17 176.745 1051.15 173.862 1051.96 170.535C1053.87 162.67 1048.81 154.805 1048.37 146.718C1047.93 138.579 1052.18 130.731 1051.7 122.593C1051.08 112.322 1042.79 103.741 1033.22 99.9361L1033.27 99.8849Z" fill="#FEFDF9"/>
<path d="M317.235 243.045C313.719 238.779 309.009 235.145 303.548 234.395C303.479 234.395 303.394 234.378 303.326 234.361C297.762 233.678 291.533 236.8 290.065 242.209C288.905 246.457 290.748 250.842 291.977 255.073C294.588 263.962 294.468 273.789 290.714 282.268C288.819 286.55 286.054 290.423 284.518 294.842C283.051 299.124 282.812 303.731 281.617 308.099C279.706 315.213 275.115 321.56 269.09 325.791C269.022 322.942 268.356 320.11 267.11 317.55C266.377 316.049 265.455 314.582 264.619 313.115C263.441 311.033 262.485 308.918 262.537 306.563C262.673 301.94 266.786 298.357 267.793 293.853C268.271 291.72 268.015 289.502 267.998 287.318C267.895 274.454 275.831 262.75 276.975 249.937C277.436 244.734 276.753 239.513 276.07 234.326C275.439 229.498 274.756 224.533 272.367 220.285C270.473 216.924 267.622 214.228 264.687 211.737C260.762 208.428 255.727 205.22 250.829 206.756C249.498 207.165 248.354 207.899 247.398 208.837C244.668 211.516 243.439 215.9 243.541 219.876C243.678 225.25 245.521 230.488 245.521 235.862C245.521 241.953 243.183 247.839 243.029 253.93C242.637 268.943 255.488 283.002 251.733 297.555C250.607 301.905 248.03 306.085 248.661 310.538C249.207 314.394 251.921 317.175 254.788 319.615C254.583 319.53 254.396 319.461 254.208 319.393C247.637 317.158 239.838 317.755 234.206 314.087C233.626 313.712 233.062 313.285 232.533 312.807C227.209 308.03 226.867 299.722 228.659 292.795C230.451 285.885 233.984 279.436 235.11 272.373C235.81 267.971 235.554 263.399 234.342 259.099C231.765 249.886 223.881 241.697 214.34 241.134C211.063 240.946 207.531 241.765 205.329 244.205C204.305 245.331 203.657 246.713 203.315 248.18C202.889 249.937 202.889 251.848 203.145 253.657C204.783 264.883 215.142 273.396 216.61 284.64C217.463 291.106 215.211 297.708 216.183 304.158C217.242 311.306 222.208 317.414 228.215 321.457C234.223 325.501 241.22 327.736 248.149 329.783C250.829 330.568 260.591 333.878 265.114 333.196C265.438 333.247 265.779 333.281 266.155 333.281C268.646 333.315 271.923 332.36 273.169 331.933C274.466 331.489 275.695 330.926 276.907 330.295C282.027 327.514 286.327 323.181 291.243 319.922C294.093 318.028 297.216 316.459 299.52 313.934C304.981 307.962 304.35 298.647 307.883 291.345C311.415 284.008 318.942 279.18 322.441 271.827C326.861 262.528 323.738 251.012 317.201 243.062L317.235 243.045Z" fill="#FEFDF9"/>
<path d="M233.216 233.081C228.42 235.367 223.863 236.51 219.238 236.578C221.013 234.309 223.232 233.081 226.304 232.774C227.345 232.671 227.499 230.914 226.372 230.863C222.618 230.692 218.624 233.03 217.105 236.527C214.767 236.391 212.395 235.998 209.954 235.333C212.873 232.91 215.518 230.18 217.822 227.212C222.225 228.73 227.123 227.69 230.588 224.533C231.543 223.663 230.4 221.991 229.427 222.861C226.492 225.472 222.737 226.444 218.982 225.659C220.962 222.895 222.652 219.961 223.983 216.924C225.024 214.535 221.44 212.812 220.314 215.184C217.498 221.138 213.845 226 209.493 229.942C208.93 226 209.203 221.496 212.292 218.818C213.248 217.982 212.241 216.446 211.149 217.18C206.729 220.097 206.711 226.734 207.735 231.494C202.172 236.049 195.55 239.206 188.126 241.321C192.154 234.173 195.584 226.7 198.383 219.091C204.663 217.555 210.961 213.529 213.675 207.54C214.067 206.653 212.838 205.783 212.207 206.585C210.551 208.752 208.828 210.697 206.95 212.369C206.916 207.779 208.589 204.043 212.19 200.835C213.026 200.085 212.156 198.737 211.166 199.385C206.558 202.354 204.049 208.53 205.09 213.887C203.298 215.201 201.335 216.276 199.1 217.06C202.257 208.103 204.51 199.01 205.756 190.155C206.131 187.511 202.155 186.794 201.66 189.439C200.602 195 199.322 200.477 197.803 205.868C197.359 204.623 196.386 203.514 195.942 202.251C195.191 200.051 195.174 197.935 195.345 195.666C195.413 194.71 193.894 194.301 193.655 195.29C193.058 197.696 193.297 200.238 194.048 202.576C194.611 204.316 195.499 206.807 197.359 207.404C196.403 210.645 195.362 213.853 194.202 217.026C193.758 216.242 193.331 215.44 193.007 214.57C192.171 212.335 191.744 210.014 191.573 207.643C191.505 206.721 189.952 206.79 189.952 207.711C190.003 211.516 190.891 216.224 193.28 219.5C192.495 221.565 191.659 223.612 190.771 225.659C186.948 218.357 184.457 210.611 183.45 202.559C185.549 201.125 187.324 199.334 188.74 197.184C190.071 195.171 191.932 192.117 191.488 189.609C191.403 189.166 190.788 188.841 190.464 189.285C189.133 191.145 188.757 193.636 187.529 195.632C186.368 197.525 184.883 199.129 183.211 200.528C182.921 197.321 182.852 194.079 183.04 190.803C183.177 188.483 179.593 188.159 179.439 190.479C179.046 196.212 179.337 201.876 180.309 207.387C178.654 206.636 177.186 205.544 176.128 204.043C174.865 202.251 174.882 200.289 174.029 198.379C173.79 197.85 172.902 197.679 172.663 198.31C171.861 200.579 173.09 203.412 174.455 205.288C173.107 205.51 171.793 205.51 170.428 205.066C168.875 204.555 167.936 203.207 166.502 202.678C165.99 202.49 165.222 202.814 165.359 203.48C165.751 205.408 168.055 206.551 169.779 207.097C171.776 207.745 173.961 207.762 175.889 206.926C177.254 208.206 178.893 209.076 180.719 209.554C181.35 212.59 182.187 215.576 183.245 218.494C181.385 218.63 179.507 218.408 177.749 217.726C175.616 216.907 174.199 215.388 172.407 214.092C171.793 213.648 170.598 214.211 171.042 215.047C173.295 219.449 179.319 221.036 183.996 220.421C185.31 223.731 186.897 226.939 188.757 230.061C187.204 233.32 185.532 236.527 183.706 239.683C179.78 246.474 175.326 252.633 170.479 258.451C170.035 255.482 169.694 252.548 169.472 249.647C173.449 247.054 176.811 242.635 176.862 237.841C176.862 237.022 175.497 236.749 175.223 237.551C173.909 241.56 172.407 244.955 169.335 247.515C169.148 243.949 169.182 240.383 169.438 236.766C173.329 235.162 176.572 231.562 177.391 227.417C177.613 226.325 175.838 225.693 175.479 226.802C174.353 230.163 172.51 232.876 169.626 234.668C169.882 231.938 170.291 229.174 170.837 226.342C171.23 224.346 167.834 223.578 167.322 225.574C166.827 227.519 166.4 229.515 166.059 231.528C162.97 228.184 161.758 224.243 162.389 219.415C162.526 218.391 160.887 217.999 160.597 219.022C159.113 224.397 161.246 230.641 165.666 234.036C165.325 236.459 165.086 238.916 164.983 241.373C162.441 239.649 160.751 237.278 160.427 233.985C160.307 232.791 158.549 233.132 158.618 234.292C158.822 238.199 161.314 242.038 164.932 243.642C164.881 247.532 165.12 251.422 165.734 255.243C163.106 254.441 161.092 252.735 160.119 249.971C159.778 248.999 158.089 249.511 158.379 250.5C159.403 254.049 162.423 256.881 166.11 257.376C166.434 258.997 166.81 260.6 167.27 262.187C162.697 267.374 157.815 272.321 152.73 277.218C154.487 259.099 155.102 240.775 155.307 222.742C155.426 212.812 155.307 202.9 154.948 192.987C165.854 187.238 174.797 178.741 181.111 168.607C182.562 168.351 184.03 168.027 185.463 167.651C186.249 169.17 187.426 170.432 188.962 171.234C190.396 171.985 192.887 172.787 194.202 171.558C194.423 171.354 194.389 170.876 194.133 170.705C193.024 169.972 191.539 170.262 190.276 169.75C190.788 169.341 191.351 169.016 192 168.795C192.836 168.505 193.69 168.641 194.475 168.215C195.106 167.873 194.816 167.054 194.355 166.764C193.451 166.184 191.949 166.662 191.01 167.02C190.071 167.396 189.286 167.976 188.604 168.709C188.058 168.266 187.58 167.754 187.187 167.157C190.14 166.27 193.041 165.109 195.823 163.727C199.578 168.641 207.189 167.498 212.156 164.768C213.094 164.256 212.258 162.721 211.302 163.13C208.503 164.308 205.602 165.161 202.906 164.956C203.315 164.7 203.742 164.427 204.151 164.137C204.681 163.762 205.193 163.369 205.739 163.045C206.387 162.67 207.172 162.567 207.718 162.073C208.111 161.714 208.23 160.929 207.599 160.708C205.124 159.837 202.479 163.284 200.294 164.393C199.373 164.035 198.502 163.489 197.683 162.755C201.062 160.895 204.22 158.677 207.07 156.118C210.108 159.155 214.869 160.81 218.999 159.121C219.904 158.746 219.648 157.261 218.607 157.398C214.818 157.875 211.302 157.432 208.435 154.873C209.92 153.44 211.285 151.904 212.548 150.283C218.334 150.88 225.195 149.737 229.495 145.813C230.076 145.284 229.325 144.346 228.659 144.619C226.731 145.404 224.956 146.376 223.044 147.127C223.488 146.666 223.932 146.189 224.324 145.66C225.485 144.158 226.935 142.196 226.97 140.251C226.97 139.518 225.98 139.33 225.553 139.808C224.341 141.173 223.795 143.118 222.635 144.602C221.542 145.984 220.262 147.161 218.88 148.236C217.225 148.509 215.535 148.594 213.862 148.543C215.006 146.905 216.047 145.199 216.951 143.391C217.941 141.429 214.938 139.381 213.641 141.258C211.644 144.175 209.51 146.871 207.241 149.345C206.848 147.332 206.729 145.404 206.831 143.493C207.326 142.503 207.957 141.582 208.742 140.78C209.203 140.285 209.732 139.842 210.278 139.449C210.825 139.057 211.371 138.835 211.627 138.17C211.78 137.76 211.593 137.317 211.132 137.232C209.766 136.976 208.282 138.545 207.411 139.432C207.411 139.432 207.411 139.432 207.394 139.449C207.65 138.306 207.957 137.146 208.35 135.935C208.691 134.86 207.326 134.161 206.746 135.167C204.049 139.825 203.861 145.967 205.568 151.068C199.526 157.125 192.41 161.595 183.757 163.915C184.695 162.107 185.549 160.247 186.334 158.353C191.061 157.517 197.086 155.043 198.793 150.795C198.98 150.334 198.519 149.618 197.973 149.908C196.113 150.863 194.697 152.484 192.939 153.644C193.331 152.382 193.809 151.205 194.662 150.061C195.533 148.901 197.547 147.946 197.751 146.479C197.803 146.154 197.598 145.916 197.291 145.813C195.516 145.284 193.485 148.117 192.631 149.379C191.573 150.949 190.635 152.996 190.549 154.941C189.474 155.436 188.365 155.794 187.221 156.101C188.501 152.638 189.508 149.072 190.208 145.404C195.345 144.141 199.97 140.354 201.353 135.133C201.609 134.161 200.124 133.751 199.714 134.604C198.844 136.413 197.769 138.068 196.489 139.449C196.489 138.648 196.574 137.846 196.727 137.061C197.001 135.662 197.7 134.434 198.042 133.052C198.263 132.164 197.103 131.806 196.557 132.352C194.509 134.451 194.167 138.255 194.628 141.139C193.434 142.077 192.085 142.811 190.583 143.322C191.232 139.245 191.522 135.065 191.403 130.851C191.334 128.121 187.102 128.53 187.17 131.243C187.273 134.877 187.051 138.477 186.539 142.026C185.566 140.456 184.644 138.938 184.183 137.027C183.569 134.553 183.689 132.13 184.149 129.639C184.337 128.599 182.613 128.223 182.323 129.247C181.879 130.817 181.658 132.574 181.709 134.365C181.436 134.331 181.146 134.399 180.924 134.638C179.132 136.583 177.22 137.88 174.814 138.443C175.872 136.566 176.657 134.416 176.333 132.523C176.213 131.823 175.309 131.635 174.967 132.284C173.67 134.758 173.363 137.402 171.622 139.722C170.718 140.934 169.677 141.975 168.499 142.862C168.772 140.012 168.687 137.112 168.226 134.212C171.947 130.987 174.182 125.988 173.722 121.041C173.602 119.727 171.725 119.949 171.708 121.228C171.674 125.357 170.377 128.974 167.765 131.857C167.458 130.544 167.117 129.213 166.656 127.916C165.769 125.374 161.894 126.807 162.731 129.366C165.939 139.279 164.403 148.782 159.095 156.528C158.993 155.555 158.891 154.6 158.857 153.627C158.788 151.682 159.01 149.72 159.266 147.792C159.386 146.837 157.85 146.479 157.594 147.434C156.689 150.812 156.348 155.06 157.662 158.438C156.348 160.093 154.846 161.646 153.156 163.096C152.849 159.36 152.525 155.606 152.166 151.87C154.453 149.993 156.143 147.502 157.082 144.755C159.556 143.681 162.202 141.002 162.219 138.187C162.219 137.18 160.836 137.146 160.427 137.88C159.829 138.955 159.573 140.081 158.771 141.07C158.447 141.463 158.089 141.821 157.713 142.162C158.071 139.876 157.918 137.505 157.167 135.218C156.843 134.212 155.136 134.57 155.324 135.645C156.331 141.07 155.324 145.694 151.927 149.447C151.552 145.711 151.142 141.975 150.699 138.255C150.374 135.542 146.159 135.935 146.466 138.648C146.859 141.975 147.217 145.318 147.558 148.645C144.691 147.315 142.012 146.018 139.622 144.039C140.937 140.098 141.585 135.628 138.871 132.199C138.086 131.209 136.653 132.233 137.284 133.307C139.059 136.361 138.786 139.415 138.018 142.538C137.438 141.923 136.875 141.258 136.346 140.524C134.827 138.409 133.786 136.157 133.103 133.819C134.929 132.625 136.602 130.953 137.899 129.025C141.124 128.394 143.872 125.118 144.674 122.047C144.913 121.126 143.599 120.597 143.036 121.279C142.114 122.388 141.636 123.804 140.732 124.93C140.356 125.408 139.895 125.835 139.418 126.227C140.322 124.094 140.715 121.791 140.373 119.556C140.237 118.618 138.769 118.447 138.615 119.488C137.916 124.538 136.516 128.564 132.642 131.84C131.925 128.155 132.096 124.316 132.898 120.512C133.291 118.686 130.202 118.004 129.707 119.812C128.99 122.388 128.717 125.169 128.836 127.984C127.983 127.473 127.164 126.944 126.498 126.074C125.235 124.436 124.757 122.252 124.911 120.205C124.996 119.044 123.324 118.925 123.136 120.051C122.743 122.422 123.204 124.76 124.587 126.739C125.594 128.189 127.232 129.776 129.024 130.254C129.57 134.945 131.209 139.603 133.803 143.476C133.41 143.647 133.001 143.8 132.54 143.868C131.226 144.056 129.946 143.766 128.802 143.101C127.863 142.572 126.891 143.902 127.829 144.517C129.775 145.796 132.881 146.376 135.066 145.199C138.257 149.191 142.609 152.075 147.968 152.791C150.153 175.346 151.296 197.986 151.177 220.66C151.177 222.861 151.108 225.062 151.074 227.263C145.63 224.636 140.851 221.445 136.585 217.794C136.687 217.692 136.789 217.572 136.875 217.436C137.933 215.661 138.854 213.836 139.639 211.942C141.193 211.857 142.763 210.987 143.991 210.134C145.988 208.752 147.797 206.67 148.565 204.35C148.941 203.224 147.456 202.456 146.859 203.548C145.988 205.135 145.152 206.602 143.77 207.813C142.95 208.547 141.705 209.485 140.442 209.912C142.302 204.794 143.172 199.368 142.882 193.977C147.115 190.411 148.087 183.279 146.927 178.195C146.671 177.069 145.186 177.206 145.152 178.366C145.033 181.249 145.425 184.047 144.708 186.896C144.282 188.534 143.565 189.899 142.643 191.162C142.182 187.647 141.244 184.184 139.742 180.823C138.701 178.536 135.202 179.765 136.038 182.188C138.103 188.108 139.008 194.028 138.615 199.88C135.151 195.734 133.171 190.957 133.257 185.31C133.257 184.184 131.584 184.013 131.499 185.156C131.038 191.588 133.393 198.293 138.359 202.507C137.745 206.926 136.38 211.277 134.127 215.542C134.127 215.542 134.127 215.559 134.127 215.576C127.147 209.008 121.685 201.142 117.163 192.578C119.211 189.575 120.849 186.316 122.129 182.921C127.761 181.573 132.557 177.342 134.468 171.814C134.895 170.569 133.069 169.648 132.591 170.927C130.816 175.517 127.386 178.929 122.948 180.601C124.433 175.909 125.201 170.978 125.218 166.048C128.171 164.939 130.765 162.908 132.625 160.349C135.168 162.073 140.22 159.752 141.244 157.21C141.551 156.442 140.629 155.385 139.878 156.067C138.581 157.244 135.68 159.957 133.7 158.677C134.673 156.92 135.322 154.975 135.526 152.962C135.663 151.699 133.803 151.341 133.547 152.621C132.523 157.79 129.604 161.697 125.167 164.103C125.013 160.179 124.399 156.272 123.273 152.518C125.065 149.533 125.525 146.035 124.979 142.606C126.788 139.961 127.863 134.57 125.252 132.096C124.689 131.567 123.938 132.147 123.938 132.779C123.938 134.195 124.621 135.525 124.638 136.976C124.638 137.914 124.501 138.801 124.262 139.654C123.426 137.163 122.061 134.809 120.286 132.898C119.74 132.301 118.647 133.086 118.989 133.802C121.651 139.211 124.314 144.448 122.402 149.874C121.617 147.741 120.661 145.677 119.552 143.681C118.443 141.719 115.149 143.442 116.053 145.506C119.962 154.378 121.481 163.369 120.439 172.224C118.016 168.743 116.565 165.092 116.053 160.503C115.951 159.513 114.295 159.565 114.295 160.571C114.295 165.758 116.361 171.285 120.013 175.09C119.159 179.731 117.606 184.32 115.268 188.824C111.633 181.352 108.646 173.418 105.967 165.399C107.23 163.113 108.083 160.554 108.425 157.961C108.595 157.978 108.8 157.961 108.971 157.807C111.445 155.965 113.101 153.081 113.033 149.942C113.015 148.884 111.275 148.799 111.155 149.874C110.899 152.245 110.199 154.412 108.561 156.135C108.663 153.201 108.066 150.249 106.598 147.605C106.086 146.7 104.755 147.502 105.045 148.424C106.684 153.508 107.093 158.268 105.182 163.062C104.073 159.701 103.014 156.323 101.973 152.962C101.154 150.317 97.1435 151.819 97.9456 154.446C99.9253 160.895 102.042 167.651 104.499 174.391C101.7 173.35 98.8501 172.343 96.4267 170.825C97.7579 166.321 97.6213 159.957 94.464 156.681C94.0715 156.272 93.3205 156.698 93.4059 157.244C93.7813 159.65 94.9589 161.782 95.2149 164.256C95.4027 166.133 95.232 167.924 94.9077 169.733C92.8597 168.095 91.2725 165.962 90.5557 162.857C90.0096 160.537 86.4085 161.1 86.8693 163.489C87.3131 165.724 88.2176 167.737 89.4635 169.528C88.3883 169.716 87.3472 169.801 86.2037 169.375C84.7531 168.829 83.6096 167.703 82.9269 166.321C82.4149 165.28 80.8107 166.014 81.3056 167.071C82.8245 170.415 87.2107 172.957 90.7264 171.166C94.6005 175.585 100.642 178.332 106.394 179.338C111.241 191.827 117.35 204.009 125.833 213.819C119.484 214.467 113.34 213.819 107.639 212.044C109.585 207.882 109.807 201.586 106.172 198.617C105.54 198.088 104.704 198.754 104.926 199.488C105.557 201.62 106.633 203.343 106.82 205.612C106.581 205.612 106.342 205.612 106.103 205.527C105.506 205.357 104.96 205.015 104.55 204.538C103.782 203.616 102.519 204.759 103.151 205.715C103.885 206.824 105.37 207.66 106.786 207.694C106.65 208.991 106.291 210.219 105.796 211.43C102.212 210.134 98.816 208.393 95.6928 206.227C99.328 199.573 99.2939 191.554 95.3003 185.02C94.6005 183.86 92.9963 185.054 93.6107 186.197C95.4027 189.541 96.2901 193.038 96.2389 196.553C95.9659 196.365 95.7099 196.161 95.4709 195.939C94.7883 195.273 94.2421 194.523 93.8496 193.653C93.44 192.731 92.1429 193.38 92.4501 194.301C93.0475 196.058 94.3616 197.918 96.0853 198.788C95.8123 200.938 95.1808 203.07 94.1909 205.152C91.0677 202.797 88.2347 200.033 85.76 196.894C86.7669 194.113 87.2619 190.974 87.0912 187.903C89.3781 184.9 90.5216 180.771 89.7877 177.035C89.5488 175.824 87.8421 175.96 87.8763 177.223C87.9445 179.987 87.6203 182.409 86.6816 184.815C86.2208 182.682 85.4187 180.635 84.2069 178.844C83.6096 177.973 82.2101 178.707 82.5856 179.697C84.5653 185.02 85.5893 189.711 84.4629 195.137C82.1248 191.861 80.1451 188.21 78.6261 184.252C77.8581 182.239 74.9909 183.655 75.6224 185.617C76.3733 187.954 77.312 190.189 78.3872 192.322C77.1584 192.271 75.8784 192.373 74.6325 191.895C72.4651 191.042 70.8267 189.319 69.8027 187.255C69.2907 186.248 67.7547 186.948 68.1984 187.988C69.2395 190.428 71.0144 192.39 73.4549 193.499C75.0592 194.233 77.6192 194.949 79.4283 194.267C81.3909 197.73 83.7632 200.869 86.4768 203.65C85.1968 203.923 83.9168 204.043 82.6368 204.026C81.6981 201.467 79.4453 199.146 77.1413 197.867C76.2368 197.372 75.3835 198.549 76.2197 199.197C77.2949 200.016 78.3189 200.955 79.1723 202.013C79.6331 202.593 80.0085 203.207 80.3669 203.838C78.1312 203.497 75.9637 202.712 73.9157 201.398C73.0112 200.818 72.0555 202.166 72.96 202.797C77.4144 205.92 82.9952 206.909 88.1493 205.322C90.5387 207.557 93.1669 209.502 95.9659 211.191C90.3168 212.898 85.6405 211.806 79.8379 209.792C78.9845 209.485 78.0971 210.56 78.9163 211.226C80.9472 212.846 83.4389 213.802 86.0843 214.211C85.5893 214.57 85.0603 214.911 84.4971 215.133C83.9339 215.371 83.3707 215.457 82.7563 215.406C82.176 215.371 81.8517 215.269 81.3909 215.661C81.1008 215.9 81.0325 216.19 81.1179 216.532L81.1691 216.77C81.2544 217.129 81.6469 217.385 82.0053 217.453C84.7189 217.999 86.9205 216.327 88.6272 214.416C91.9893 214.501 95.4197 213.768 98.2699 212.488C107.486 217.368 118.357 219.295 129.263 217.521C135.322 223.612 142.49 228.526 151.108 231.682C150.835 241.407 150.289 251.097 149.589 260.754C147.2 260.31 144.913 259.73 142.763 258.963C144.862 252.36 143.991 245.041 140.681 238.95C140.117 237.909 138.342 238.83 138.837 239.905C140.373 243.147 141.261 246.354 141.534 249.596C139.503 248.641 138.035 246.849 137.609 244.563C137.404 243.454 135.782 243.744 135.885 244.853C136.226 248.129 138.513 250.773 141.602 251.66C141.602 253.81 141.363 255.977 140.885 258.212C136.806 256.54 133.171 254.288 129.997 251.507C131.908 248.265 132.983 244.802 133.205 241.304C135.014 239.376 136.294 236.988 137.028 234.463C137.574 232.586 138.206 229.822 136.329 228.526C135.646 228.048 134.554 228.611 134.912 229.515C136.073 232.381 134.775 235.469 133.154 238.131C132.796 234.07 131.26 230.078 128.495 226.563C127.676 225.506 125.986 226.666 126.788 227.758C128.597 230.266 129.826 232.91 130.526 235.64C127.471 235.299 125.047 233.576 123.767 230.624C123.324 229.617 121.941 230.317 122.249 231.324C123.443 235.094 127.044 237.653 130.935 237.721C131.55 241.918 130.833 246.218 128.734 250.347C123.392 245.211 119.467 238.506 117.111 230.522C116.48 228.389 113.22 228.816 113.613 231.119C114.295 235.06 115.575 238.796 117.333 242.26C115.507 242.14 113.801 241.901 112.043 240.741C111.838 240.605 111.667 240.451 111.462 240.315C112.452 237.721 112.828 233.627 110.626 231.682C110.08 231.187 109.261 231.682 109.295 232.381C109.346 233.695 110.046 234.906 110.148 236.237C110.217 237.124 110.165 238.063 110.012 238.967C108.527 237.261 107.657 235.094 107.401 232.774C107.281 231.682 105.694 232.006 105.745 233.064C105.916 236.647 107.571 240.008 110.49 242.157C112.555 243.676 115.78 244.87 118.511 244.444C119.62 246.303 120.866 248.078 122.249 249.75C118.835 250.756 115.371 250.5 112.094 248.692C111.104 248.146 110.097 249.545 111.087 250.159C114.944 252.582 119.535 253.093 123.699 251.422C125.662 253.554 127.846 255.499 130.202 257.188C129.058 257.734 127.915 258.212 126.549 258.382C124.467 258.638 122.539 258.246 120.576 257.632C119.689 257.359 118.869 258.69 119.791 259.184C123.375 261.095 128.666 260.925 132.13 258.519C137.267 261.829 143.121 264.081 149.265 264.951C148.241 278.242 146.927 291.498 145.63 304.823C145.408 307.058 148.685 307.28 149.06 305.13C150.374 297.657 151.398 290.099 152.235 282.507C165.41 273.26 176.742 260.344 185.617 245.74C188.006 245.587 190.362 245.177 192.666 244.563C195.516 248.794 200.38 250.739 205.517 249.511C206.609 249.255 206.182 247.327 205.073 247.566C200.977 248.453 197.052 247.207 194.577 244C198.758 242.669 202.752 240.656 206.421 238.131C208.026 238.899 209.715 239.496 211.439 239.939C212.002 243.608 214.289 246.747 217.463 248.709C218.539 249.374 219.375 247.583 218.317 246.934C215.842 245.416 214.272 243.096 213.504 240.417C216.764 241.014 220.126 241.065 223.403 240.605C224.631 245.143 230.025 249.204 234.581 246.32C235.264 245.894 234.803 244.853 234.052 244.904C231.885 245.041 230.042 245.399 228.062 244.171C226.611 243.266 225.655 241.884 225.178 240.298C228.659 239.615 232.021 238.353 235.025 236.527C236.851 235.418 235.23 232.228 233.267 233.166L233.216 233.081ZM157.286 164.734C161.673 165.877 166.861 165.195 170.155 161.919C170.957 161.117 169.762 160.093 168.926 160.554C165.683 162.38 162.543 163.489 159.044 163.062C161.263 160.844 163.123 158.37 164.591 155.692C165.871 155.862 167.253 155.862 168.602 155.658C170.598 157.381 174.694 158.694 176.589 156.408C177.067 155.828 176.572 155.129 175.906 155.095C174.797 155.06 173.773 155.555 172.629 155.419C172.1 155.35 171.622 155.197 171.162 155.009C173.483 154.173 175.462 152.638 176.401 150.3C176.674 149.601 175.855 148.662 175.172 149.26C173.67 150.573 172.561 152.058 170.701 152.945C169.028 153.747 167.253 154.003 165.478 153.9C166.741 151.222 167.663 148.372 168.175 145.455C170.103 144.312 171.81 142.759 173.158 140.968C173.278 140.814 173.397 140.644 173.517 140.473C176.725 140.303 179.883 138.921 181.897 136.378C182.357 139.603 183.706 142.691 186.112 144.653C185.6 147.366 184.9 150.044 184.047 152.655C182.801 150.13 181.948 147.622 181.658 144.619C181.555 143.595 179.831 143.647 179.849 144.687C179.883 148.355 180.873 152.314 183.125 155.299C177.903 169.238 167.919 181.3 154.761 188.756C154.47 181.659 154.061 174.561 153.549 167.481C154.863 166.628 156.126 165.724 157.269 164.717L157.286 164.734Z" fill="#FEFDF9"/>
<path d="M596.326 304.072C592.213 305.863 587.844 305.914 583.834 304.601C586.854 302.843 589.636 300.506 592.009 297.589C594.586 294.398 590.063 289.809 587.452 293.033C584.192 297.06 580.181 299.738 575.863 301.069C575.778 301.086 575.676 301.12 575.59 301.154C571.085 302.468 566.255 302.28 561.63 300.523C562.347 300.796 570.317 293.033 571.494 292.129C574.071 290.167 578.526 288.086 578.219 284.145C577.673 277.457 567.791 283.479 565.214 285.356C561.476 288.086 557.227 290.218 552.96 292.01C551.885 292.453 540.177 296.036 540.177 296.019C540.177 292.334 540.501 288.649 541.099 285.015C552.311 283.36 561.391 275.921 565.521 264.951C566.989 261.061 560.759 259.389 559.309 263.245C556.39 271.007 550.178 276.279 542.583 278.156C543.078 278.037 544.649 271.724 544.956 270.922C545.655 269.114 546.85 267.612 547.345 265.77C548.011 263.347 548.386 258.28 546.389 256.318C541.252 251.268 536.627 263.142 535.211 266.537C533.487 264.047 532.053 261.402 530.91 258.672C536.593 252.087 539.853 244.392 540.706 235.742C541.116 231.613 534.665 231.665 534.272 235.742C533.709 241.406 531.729 246.678 528.538 251.285C526.421 242.089 527.172 232.279 530.825 223.236C532.378 219.398 526.148 217.743 524.612 221.53C522.701 226.256 521.557 231.136 521.114 236.049C518.195 232.603 516.796 228.116 517.086 223.458C517.342 219.312 510.891 219.346 510.652 223.458C510.14 231.938 514.167 239.683 521.045 244.529C521.813 254.799 525.653 264.763 532.207 273.174C529.51 278.651 526.387 283.906 522.889 288.905C518.093 282.814 515.994 275.153 515.021 267.578C514.56 264.012 514.304 260.378 514.065 256.813C513.843 253.383 514.714 249.903 512.102 247.105C510.02 244.87 506.658 243.863 504.286 246.115C501.794 248.47 502.016 253.196 501.572 256.335C500.89 261.163 501.35 266.435 501.982 271.246C499.029 270.086 496.35 268.448 494.012 266.435C498.244 256.011 497.903 244.972 493.005 234.65C491.23 230.914 485.683 234.173 487.441 237.892C490.94 245.262 491.52 253.383 489.182 260.993C486.844 257.546 485.205 253.554 484.437 249.152C483.721 245.075 477.525 246.815 478.225 250.858C480.631 264.61 490.445 274.812 503.296 278.361C504.883 285.185 507.409 291.754 509.611 298.408C511.232 303.304 512.683 308.269 513.792 313.285C510.003 313.114 506.351 312.398 502.886 311.152C503.398 302.571 499.746 294.705 492.595 289.57C489.216 287.147 486.007 292.726 489.353 295.132C493.585 298.169 496.247 303.065 496.589 308.201C491.196 305.01 486.571 300.421 483.174 294.671C481.058 291.105 475.494 294.347 477.611 297.913C485.751 311.681 499.627 319.393 514.987 319.632C514.987 319.7 515.004 319.751 515.021 319.819C516.983 332.496 516.352 345.411 515.721 358.241C520.38 359.981 525.278 361.278 530.244 361.244C533.965 361.227 539.221 360.476 542.14 357.9C544.853 355.528 542.771 349.71 542.754 346.366C542.669 336.539 544.87 326.695 549.188 317.857C551.322 313.49 553.967 309.361 557.056 305.59C563.029 308.474 569.6 309.173 575.761 307.808C582.912 312.637 591.735 313.08 599.62 309.651C603.409 307.996 600.132 302.451 596.378 304.089L596.326 304.072Z" fill="#FEFDF9"/>
<path d="M725.965 247.736C727.091 245.331 723.353 243.556 722.244 245.962C718.763 253.452 714.462 261.743 705.997 263.569C706.85 259.628 707.328 255.601 707.43 251.558C714.94 242.874 719.548 231.17 718.575 219.602C718.353 216.975 714.65 217.47 714.581 219.978C714.325 229.464 712.277 237.772 707.294 245.416C706.679 236.544 704.273 227.741 700.023 219.824C698.743 217.453 695.33 219.875 696.593 222.23C698.419 225.642 699.904 229.225 701.047 232.927C697.48 230.709 694.238 228.372 691.592 224.857C688.469 220.694 687.633 216.241 685.807 211.55C685.192 209.963 682.308 209.912 682.206 211.874C681.694 222.588 692.07 235.043 702.14 237.892C702.208 237.909 702.293 237.926 702.362 237.926C704.239 246.61 704.171 255.704 701.832 264.371C698.368 277.252 690.739 287.13 680.857 295.507C680.67 288.512 680.619 281.517 680.687 274.505C688.094 268.653 692.616 259.235 693.692 249.988C693.999 247.344 689.937 246.593 689.596 249.272C688.606 257.069 685.517 263.33 680.789 269.097C680.96 260.088 681.352 251.097 682.035 242.072C682.24 239.444 678.161 238.711 677.973 241.355C676.915 255.635 676.369 269.967 676.506 284.298C668.45 274.71 663.637 264.388 661.419 253.196C661.47 253.145 661.538 253.11 661.589 253.042C668.245 245.552 671.642 235.845 670.839 225.83C670.618 223.151 666.573 223.561 666.692 226.222C667.051 234.394 665.122 242.004 660.668 248.692C659.831 242.464 659.746 235.964 660.309 229.191C660.514 226.666 656.998 225.983 656.401 228.508C653.312 241.577 655.599 256.267 661.487 268.943C650.359 268.141 645.393 256.523 643.226 246.798C642.765 244.75 639.659 245.262 640 247.344C642.014 259.73 648.96 273.652 663.484 273.106C663.518 273.106 663.552 273.106 663.586 273.106C666.18 277.832 669.269 282.183 672.785 285.987C669.713 286.294 666.743 286.687 663.432 285.885C658.688 284.759 654.37 282.217 651.025 278.685C649.404 276.979 646.605 279.282 648.209 281.057C654.353 287.881 667.341 294.245 676.574 289.672C676.847 302.468 677.683 315.247 679.185 327.957C679.424 330.056 682.496 329.442 682.359 327.412C681.745 318.13 681.267 308.883 680.977 299.619C685.756 296.702 689.903 293.17 693.384 289.143C706.969 290.389 719.684 282.66 724.104 269.472C724.941 266.981 721.305 265.121 720.316 267.681C716.237 278.344 707.26 285.185 696.115 285.697C700.194 280.135 703.181 273.874 705.058 267.237C715.912 266.776 721.698 256.727 725.948 247.736H725.965Z" fill="#FEFDF9"/>
<path d="M532.412 265.514C529.169 261.556 524.8 258.212 519.748 257.512C519.68 257.512 519.612 257.495 519.543 257.478C514.389 256.847 508.638 259.73 507.255 264.746C506.18 268.67 507.887 272.748 509.03 276.655C511.437 284.878 511.334 293.989 507.87 301.837C506.112 305.795 503.552 309.378 502.135 313.473C500.77 317.431 500.548 321.696 499.456 325.74C497.681 332.325 493.431 338.194 487.868 342.118C487.799 339.474 487.185 336.863 486.042 334.492C485.376 333.093 484.506 331.745 483.738 330.38C482.645 328.452 481.758 326.49 481.809 324.306C481.929 320.024 485.751 316.714 486.673 312.534C487.117 310.555 486.878 308.508 486.861 306.478C486.758 294.569 494.114 283.735 495.172 271.861C495.599 267.032 494.967 262.204 494.336 257.41C493.756 252.94 493.124 248.333 490.906 244.409C489.148 241.304 486.519 238.796 483.789 236.493C480.171 233.422 475.494 230.47 470.955 231.886C469.726 232.279 468.668 232.944 467.78 233.814C465.254 236.288 464.111 240.349 464.213 244.034C464.35 249.016 466.057 253.861 466.057 258.843C466.057 264.473 463.889 269.933 463.753 275.563C463.394 289.468 475.29 302.485 471.808 315.947C470.767 319.973 468.378 323.846 468.958 327.958C469.47 331.523 471.979 334.1 474.624 336.369C474.436 336.3 474.249 336.232 474.095 336.164C468.019 334.1 460.783 334.663 455.578 331.25C455.031 330.892 454.519 330.5 454.025 330.056C449.092 325.637 448.768 317.943 450.441 311.528C452.113 305.13 455.373 299.158 456.414 292.624C457.062 288.546 456.823 284.315 455.714 280.323C453.325 271.792 446.037 264.217 437.197 263.705C434.159 263.535 430.882 264.286 428.851 266.555C427.895 267.595 427.315 268.875 426.991 270.24C426.598 271.878 426.598 273.635 426.837 275.307C428.356 285.714 437.948 293.579 439.313 304.004C440.098 309.992 438.016 316.1 438.921 322.071C439.91 328.691 444.501 334.355 450.048 338.092C455.595 341.828 462.08 343.91 468.514 345.804C470.989 346.537 480.034 349.591 484.215 348.96C484.506 349.011 484.83 349.028 485.171 349.045C487.475 349.079 490.513 348.192 491.657 347.8C492.851 347.39 493.995 346.878 495.121 346.281C499.866 343.722 503.842 339.696 508.382 336.676C511.01 334.918 513.911 333.468 516.045 331.131C521.114 325.603 520.516 316.97 523.776 310.214C527.053 303.424 534.016 298.954 537.242 292.146C541.338 283.548 538.436 272.884 532.395 265.514H532.412Z" fill="#FEFDF9"/>
<path d="M809.711 279.965C804.011 268.278 794.641 258.434 783.24 252.155C784.896 250.074 786.534 247.975 788.19 245.894C788.514 245.467 788.907 245.024 789.453 244.972C789.914 244.938 790.34 245.228 790.716 245.501C799.01 251.626 808.619 255.96 818.705 258.126C818.705 247.293 816.094 236.476 811.144 226.836C814.882 227.195 818.739 226.12 821.777 223.919C825.344 233.507 830.14 242.635 836.011 251.012C843.298 241.748 844.373 229.157 844.732 217.385C848.879 216.617 852.941 215.354 856.815 213.665C858.061 222.383 857.702 231.306 855.774 239.905C854.187 246.934 851.575 253.674 849.323 260.498C847.002 267.493 845.039 274.625 843.913 281.91C841.95 294.586 842.581 307.501 843.213 320.331C838.554 322.072 833.655 323.368 828.689 323.334C824.951 323.317 819.712 322.566 816.794 319.99C814.08 317.619 816.162 311.801 816.179 308.457C816.265 298.63 814.063 288.785 809.745 279.948L809.711 279.965Z" fill="#FEFDF9"/>
<path d="M835.891 281.21C854.34 284.008 871.765 276.16 881.289 260.02C883.405 256.437 877.841 253.196 875.725 256.779C867.789 270.223 853.146 277.371 837.598 275C833.536 274.386 831.795 280.579 835.891 281.21Z" fill="#FEFDF9"/>
<path d="M862.447 273.772C861.542 267.425 864.375 260.942 869.564 257.222C872.892 254.817 869.683 249.238 866.321 251.66C858.556 257.239 854.903 266.043 856.252 275.478C856.832 279.555 863.044 277.832 862.464 273.772H862.447Z" fill="#FEFDF9"/>
<path d="M848.469 241.731C864.734 240.485 877.841 229.174 880.674 212.966C881.374 208.922 875.179 207.182 874.462 211.26C872.141 224.499 862.02 234.258 848.469 235.299C844.356 235.606 844.322 242.055 848.469 241.731Z" fill="#FEFDF9"/>
<path d="M793.361 227.058C798.123 239.718 809.438 247.685 823.04 247.48C827.187 247.412 827.187 240.98 823.04 241.048C812.459 241.202 803.311 235.333 799.573 225.352C798.123 221.513 791.91 223.168 793.361 227.058Z" fill="#FEFDF9"/>
<path d="M826.487 235.538C838.11 220.797 841.353 201.159 834.253 183.638C832.717 179.85 826.487 181.505 828.04 185.344C834.219 200.562 832.188 217.965 821.931 230.982C819.388 234.207 823.91 238.779 826.487 235.538Z" fill="#FEFDF9"/>
<path d="M818.159 197.85C819.029 206.602 822.34 214.365 828.126 221.002C830.857 224.124 835.396 219.551 832.683 216.446C828.092 211.191 825.293 204.793 824.593 197.85C824.183 193.772 817.749 193.721 818.159 197.85Z" fill="#FEFDF9"/>
<path d="M837.82 206.636C844.715 201.791 848.742 194.045 848.213 185.566C847.957 181.454 841.523 181.42 841.779 185.566C842.155 191.691 839.646 197.508 834.56 201.074C831.198 203.446 834.406 209.025 837.803 206.636H837.82Z" fill="#FEFDF9"/>
<path d="M766.856 259.73C776.721 271.929 793.788 274.164 806.468 264.951C809.796 262.545 806.588 256.949 803.226 259.389C792.644 267.067 779.622 265.326 771.413 255.175C768.802 251.95 764.279 256.54 766.856 259.73Z" fill="#FEFDF9"/>
<path d="M780.783 263.757C775.458 267.698 768.734 268.909 762.539 266.213C758.784 264.576 755.49 270.12 759.296 271.775C767.505 275.341 776.738 274.727 784.043 269.319C787.337 266.879 784.128 261.283 780.8 263.757H780.783Z" fill="#FEFDF9"/>
<path d="M871.475 227.638C867.26 218.784 867.243 208.854 871.458 199.999C873.233 196.28 867.669 193.004 865.894 196.758C860.621 207.864 860.621 219.79 865.911 230.897C867.686 234.633 873.25 231.375 871.475 227.655V227.638Z" fill="#FEFDF9"/>
</svg>
