<svg width="78" height="90" viewBox="0 0 78 90" fill="none" xmlns="http://www.w3.org/2000/svg">
<path d="M53.9979 22.1282C55.4345 23.5374 55.4773 28.1984 55.1491 30.0883C54.407 34.3299 49.3598 35.2866 47.633 38.9014C46.5437 41.1824 46.2488 48.068 47.0004 50.3914C47.9898 53.4501 50.649 52.3897 50.8392 49.43C51.0295 46.4703 49.2837 43.9065 49.5406 40.7866C49.8117 37.4828 55.5915 36.9785 55.7485 41.5029C55.8103 43.2467 53.9836 47.2998 57.5133 47.0594C61.043 46.8191 59.6872 43.5012 59.5303 41.2767C59.3495 38.727 59.2211 36.5355 62.4606 37.2001C66.0996 37.9447 65.2482 45.0611 63.959 47.5307C62.8411 49.6798 61.1524 49.7505 59.3971 50.9098C58.0175 51.8194 53.8457 54.8545 53.2558 56.2543C52.2426 58.6673 53.6364 61.6411 56.5143 61.3677C57.9938 61.2264 58.6692 60.3168 58.8167 58.9218C58.9309 57.8378 58.3458 56.7491 58.3886 55.8725C58.5313 52.8374 64.1731 51.8666 64.0779 56.8292C64.0637 57.6021 63.5499 58.3751 64.0446 59.1433C64.625 60.0434 67.2318 59.6193 67.4031 62.4753C67.4982 64.0447 67.2556 64.483 65.9332 65.2747C62.1894 67.5181 56.7712 64.2426 53.8409 68.3758C51.2769 71.9859 53.9265 77.811 48.594 79.6726C44.541 79.437 38.59 80.4644 34.7464 79.748C27.3207 78.3718 32.8388 67.8668 25.5939 66.665C21.8454 66.0429 15.0239 67.683 13.1116 62.7722C12.2458 60.5524 12.5931 55.8442 15.8897 56.259C18.4109 56.5794 16.1656 60.8823 18.0969 61.3866C19.4765 61.7448 20.0568 59.7465 20.0616 58.7144C20.0711 57.2581 19.0721 54.6896 18.154 53.5302C16.275 51.1502 8.93498 50.8344 10.852 46.2912C11.4086 44.9716 12.6264 45.3109 12.9071 43.3786C13.3019 40.6546 11.6417 37.9871 12.7025 34.9284C13.397 32.9255 16.1704 31.4692 17.3929 34.0236C19.5478 38.5244 15.4854 42.0119 16.4177 46.065C16.7792 47.6438 17.7259 48.1669 19.3623 47.6532C22.0119 46.8191 19.3956 43.143 19.3718 41.4888C19.31 37.266 24.2477 37.5394 24.7995 41.5359C24.9517 42.6576 24.9137 44.8302 24.8328 46.0037C24.6996 47.9549 23.3534 51.3953 23.91 53.0212C24.3333 54.2607 27.5015 54.5388 28.1484 52.8186C28.8858 50.8486 28.8525 42.9168 28.6004 40.598C28.1294 36.2669 25.1563 36.7382 22.3639 34.9944C19.9902 33.5099 22.6636 31.3843 22.9015 29.7066C23.2107 27.5433 22.0119 26.153 22.7064 23.8579C23.5294 21.148 26.9497 21.8219 27.2161 23.8249C27.5491 26.3274 26.5834 26.8505 26.3075 28.6085C26.0459 30.2627 26.7118 31.7661 28.6432 31.1534C31.1406 30.3616 29.3044 26.2096 29.1331 24.5177C28.9619 22.8257 28.9238 20.3703 31.0074 19.8236C33.0909 19.2769 34.3278 20.9971 34.342 22.8964C34.3706 27.0391 32.8341 32.1808 32.6676 36.5544C32.6057 38.2275 32.1491 42.6717 34.9937 41.4558C37.5149 40.3765 34.1898 35.6825 36.2401 33.2648C37.0725 32.2798 38.6709 32.1007 39.4082 33.2129C40.7925 35.296 40.4738 40.0184 39.2941 42.1863C37.1201 46.1734 32.3679 45.523 32.425 51.6403C32.425 52.0834 32.6866 52.5452 32.6818 53.0542C32.6628 55.6793 32.2442 60.345 32.6818 62.7156C33.1813 65.4114 36.9346 64.6149 38.7946 65.4962C39.6175 66.7593 39.2655 69.9641 41.1683 70.3458C44.5838 71.0245 44.6504 65.3219 43.6752 63.3801C42.4479 60.9294 38.5853 61.8202 36.9584 60.8305C34.3468 59.2375 34.4562 53.6198 35.4504 51.1078C36.4446 48.5958 39.0752 49.3829 39.6936 51.7629C40.0504 53.1296 39.5367 53.9826 39.5462 55.1844C39.5652 57.0696 41.6916 57.8991 41.9484 55.6604C41.3063 48.313 42.8047 39.5329 41.9151 32.3552C41.4775 28.8205 37.2438 30.2862 36.7776 28.2644C36.3067 26.2379 37.5578 26.417 37.6814 25.267C37.7908 24.2443 37.2771 23.3866 37.1915 22.4299C37.0202 20.5306 37.3722 16.1523 39.9362 15.9638C43.837 15.6763 40.1598 23.0143 42.0579 24.6779C44.2033 26.5583 45.0833 23.7872 45.05 21.9539C45.0024 19.046 42.0293 10.7513 46.3582 10.0727C50.687 9.39401 49.4122 13.6639 50.3826 14.7808C50.7631 15.2191 53.0512 14.6819 53.1464 16.5482C53.213 17.8301 50.7679 19.4042 49.9307 20.6908C49.2457 21.7465 48.437 23.6364 48.1849 24.8523C47.8756 26.3463 47.3096 31.2807 49.9021 30.8094C51.6717 30.4889 50.2494 25.3896 50.2446 24.0841C50.2399 22.2413 52.5422 20.7144 54.0074 22.1471L53.9979 22.1282ZM28.7668 59.6664C27.1923 60.5571 26.6785 58.2949 24.2763 59.1197C20.7799 60.3215 22.8063 63.6865 26.0649 63.0078C26.7166 62.8712 27.2779 62.1831 27.8059 62.1124C28.5861 62.0087 28.9999 62.7863 29.7896 62.5695C30.0845 61.7118 30.4365 59.7182 29.409 59.3224C28.7811 59.082 28.881 59.6004 28.7716 59.6664H28.7668Z" fill="#FEFDF9"/>
<path d="M35.8547 12.5328C37.767 14.7526 34.1374 16.5812 31.8779 16.1193C31.1976 15.9779 30.0417 14.9646 29.9275 14.9693C29.095 15.0023 28.9618 15.8554 28.0247 15.714C26.9259 15.5443 27.0781 13.1643 27.2398 12.3301C27.6109 10.445 29.4328 12.4338 29.8752 12.3678C30.1416 12.3301 30.9645 11.5478 31.4688 11.3451C33.2289 10.6523 34.6512 11.1425 35.8547 12.5328Z" fill="#FEFDF9"/>
<path d="M60.0583 32.4872C59.9964 32.5201 59.9822 32.8171 59.8442 32.8972C57.3801 34.3582 57.97 29.2494 58.5028 29.1222C59.9869 28.7734 59.8109 29.8291 60.3532 29.8432C62.2655 28.8865 64.0732 27.8308 66.0759 29.3672C68.9729 31.5917 65.5478 34.0518 62.8031 33.5523C61.8612 33.3826 60.7909 32.1196 60.063 32.4872H60.0583Z" fill="#FEFDF9"/>
<path d="M12.3743 24.7109C14.0535 24.4045 14.8717 24.8711 16.1228 25.8373L17.9162 24.9937C18.9151 25.4555 18.9675 28.5566 17.7925 29.0844C15.7232 27.138 15.6614 29.2918 13.5112 29.3813C9.54865 29.5463 8.62579 25.3895 12.3743 24.7109Z" fill="#FEFDF9"/>
<path d="M61.1096 69.2901C61.2047 69.3466 61.1334 69.7048 61.552 69.686C62.4368 69.6483 62.8697 68.4936 63.7021 69.4221L63.5594 72.4666C62.7793 72.8436 62.2845 71.7785 61.7993 71.7785C61.3141 71.7785 60.5673 72.6881 60.0202 72.853C57.9271 73.4799 54.5782 71.1753 56.9995 69.276C58.1745 68.3522 59.9013 68.6067 61.1048 69.2901H61.1096Z" fill="#FEFDF9"/>
</svg>
