<svg width="49" height="58" viewBox="0 0 49 58" fill="none" xmlns="http://www.w3.org/2000/svg">
<path d="M35.4205 12.6612C36.4464 13.6675 36.477 16.9962 36.2426 18.3458C35.7126 21.3749 32.1083 22.0581 30.8751 24.6395C30.0972 26.2685 29.8866 31.1857 30.4233 32.845C31.1299 35.0293 33.0289 34.272 33.1648 32.1584C33.3007 30.0448 32.0539 28.2138 32.2374 25.9858C32.431 23.6265 36.5585 23.2664 36.6706 26.4974C36.7148 27.7427 35.4103 30.6371 37.931 30.4655C40.4516 30.2938 39.4835 27.9244 39.3714 26.3358C39.2423 24.515 39.1505 22.95 41.464 23.4245C44.0628 23.9563 43.4547 29.0384 42.5341 30.802C41.7358 32.3368 40.5298 32.3872 39.2762 33.2152C38.2911 33.8648 35.3118 36.0322 34.8905 37.0318C34.1669 38.755 35.1623 40.8788 37.2176 40.6836C38.2741 40.5826 38.7565 39.933 38.8618 38.9368C38.9433 38.1627 38.5255 37.3852 38.556 36.7592C38.658 34.5917 42.687 33.8984 42.619 37.4424C42.6088 37.9944 42.2419 38.5464 42.5952 39.095C43.0097 39.7378 44.8713 39.4349 44.9936 41.4745C45.0616 42.5952 44.8883 42.9082 43.9439 43.4737C41.2704 45.0757 37.401 42.7366 35.3084 45.6883C33.4773 48.2664 35.3695 52.4263 31.5613 53.7557C28.667 53.5874 24.4172 54.3211 21.6723 53.8096C16.3694 52.8268 20.31 45.3248 15.1362 44.4665C12.4593 44.0223 7.58778 45.1935 6.22213 41.6865C5.60385 40.1013 5.85184 36.739 8.20605 37.0352C10.0065 37.2641 8.40309 40.3369 9.78232 40.697C10.7675 40.9528 11.1819 39.5258 11.1853 38.7887C11.1921 37.7487 10.4787 35.9144 9.82309 35.0865C8.48122 33.3868 3.23944 33.1613 4.60849 29.9169C5.00595 28.9745 5.87562 29.2168 6.07605 27.8369C6.35801 25.8916 5.17241 23.9866 5.92997 21.8023C6.42596 20.3719 8.40648 19.3319 9.27955 21.1561C10.8184 24.3703 7.9173 26.8609 8.58314 29.7553C8.84132 30.8828 9.51735 31.2564 10.686 30.8895C12.5782 30.2938 10.7097 27.6686 10.6928 26.4873C10.6486 23.4717 14.1748 23.6669 14.5689 26.5209C14.6776 27.322 14.6504 28.8735 14.5927 29.7116C14.4975 31.1049 13.5362 33.5619 13.9336 34.723C14.236 35.6082 16.4985 35.8067 16.9605 34.5783C17.487 33.1714 17.4632 27.5071 17.2832 25.8512C16.9469 22.7581 14.8237 23.0947 12.8296 21.8494C11.1344 20.7892 13.0436 19.2713 13.2134 18.0732C13.4342 16.5283 12.5782 15.5355 13.0741 13.8964C13.6618 11.9612 16.1044 12.4424 16.2946 13.8728C16.5324 15.66 15.8428 16.0336 15.6458 17.289C15.4589 18.4703 15.9345 19.5439 17.3138 19.1064C19.0973 18.541 17.786 15.5759 17.6637 14.3676C17.5414 13.1593 17.5142 11.4058 19.0021 11.0154C20.4901 10.625 21.3733 11.8535 21.3835 13.2098C21.4039 16.1682 20.3066 19.8401 20.1877 22.9634C20.1436 24.1582 19.8175 27.3321 21.8489 26.4637C23.6494 25.693 21.2748 22.3408 22.739 20.6142C23.3335 19.9108 24.4749 19.7829 25.0015 20.5772C25.99 22.0648 25.7624 25.4372 24.9199 26.9854C23.3675 29.8327 19.9737 29.3683 20.0145 33.7369C20.0145 34.0532 20.2013 34.3831 20.1979 34.7466C20.1843 36.6212 19.8854 39.9532 20.1979 41.6461C20.5546 43.5713 23.235 43.0025 24.5632 43.6319C25.151 44.5339 24.8996 46.8225 26.2584 47.0951C28.6976 47.5798 28.7451 43.5073 28.0487 42.1207C27.1722 40.3706 24.4138 41.0067 23.252 40.2999C21.3869 39.1623 21.4651 35.1504 22.1751 33.3566C22.8851 31.5627 24.7637 32.1247 25.2053 33.8244C25.4601 34.8004 25.0932 35.4096 25.1 36.2678C25.1136 37.6141 26.6321 38.2064 26.8156 36.6078C26.3569 31.3607 27.427 25.0905 26.7918 19.9647C26.4792 17.4404 23.4558 18.4871 23.1229 17.0433C22.7865 15.5961 23.68 15.7239 23.7683 14.9027C23.8465 14.1724 23.4796 13.5598 23.4184 12.8766C23.2961 11.5203 23.5475 8.39357 25.3786 8.25895C28.1642 8.05364 25.5382 13.294 26.8937 14.482C28.4258 15.8249 29.0543 13.8459 29.0305 12.5367C28.9965 10.4601 26.8733 4.53655 29.9647 4.05189C33.0561 3.56724 32.1457 6.61651 32.8387 7.41417C33.1104 7.72718 34.7445 7.34349 34.8124 8.67629C34.86 9.59174 33.1138 10.7159 32.5159 11.6347C32.0268 12.3886 31.4492 13.7382 31.2692 14.6066C31.0484 15.6735 30.6441 19.1973 32.4956 18.8607C33.7593 18.6319 32.7435 14.9902 32.7401 14.058C32.7368 12.742 34.381 11.6515 35.4273 12.6747L35.4205 12.6612ZM17.4021 39.4686C16.2776 40.1047 15.9108 38.4892 14.1952 39.0781C11.6983 39.9364 13.1455 42.3395 15.4725 41.8548C15.9379 41.7572 16.3388 41.2658 16.7159 41.2153C17.273 41.1413 17.5686 41.6966 18.1325 41.5418C18.3431 40.9293 18.5945 39.5056 17.8607 39.2229C17.4123 39.0512 17.4836 39.4214 17.4055 39.4686H17.4021Z" fill="#FEFDF9"/>
<path d="M22.4638 5.80876C23.8295 7.39398 21.2375 8.69985 19.6238 8.37002C19.138 8.26905 18.3125 7.54543 18.231 7.5488C17.6365 7.57236 17.5414 8.18154 16.8721 8.08057C16.0874 7.95941 16.1961 6.25976 16.3116 5.66404C16.5766 4.31778 17.8777 5.73808 18.1936 5.69096C18.3839 5.66404 18.9716 5.10534 19.3317 4.96062C20.5886 4.46587 21.6043 4.8159 22.4638 5.80876Z" fill="#FEFDF9"/>
<path d="M39.7485 20.0589C39.7043 20.0825 39.6941 20.2945 39.5956 20.3517C37.8359 21.3951 38.2571 17.7467 38.6376 17.6558C39.6975 17.4068 39.5718 18.1607 39.9591 18.1708C41.3247 17.4875 42.6156 16.7336 44.0458 17.8308C46.1147 19.4194 43.6687 21.1763 41.7086 20.8195C41.036 20.6984 40.2716 19.7964 39.7518 20.0589H39.7485Z" fill="#FEFDF9"/>
<path d="M5.69557 14.5056C6.89476 14.2868 7.47907 14.62 8.37251 15.31L9.65323 14.7075C10.3666 15.0374 10.404 17.2519 9.56491 17.6289C8.08715 16.2389 8.04299 17.777 6.50749 17.8409C3.67767 17.9587 3.01863 14.9902 5.69557 14.5056Z" fill="#FEFDF9"/>
<path d="M40.4992 46.3412C40.5672 46.3816 40.5162 46.6374 40.8152 46.6239C41.447 46.597 41.7562 45.7724 42.3507 46.4354L42.2488 48.6096C41.6916 48.8789 41.3383 48.1183 40.9918 48.1183C40.6453 48.1183 40.112 48.7678 39.7213 48.8856C38.2266 49.3333 35.835 47.6875 37.5641 46.3311C38.4032 45.6714 39.6364 45.8532 40.4959 46.3412H40.4992Z" fill="#FEFDF9"/>
</svg>
