<svg width="24" height="24" viewBox="0 0 24 24" fill="none" xmlns="http://www.w3.org/2000/svg">
<path d="M12 4.2C14.0687 4.2 16.0527 5.02178 17.5155 6.48457C18.9782 7.94735 19.8 9.93131 19.8 12C19.8 14.0687 18.9782 16.0527 17.5155 17.5154C16.0527 18.9782 14.0687 19.8 12 19.8V4.2ZM12 2.4C9.45395 2.4 7.01215 3.41143 5.2118 5.21178C3.41145 7.01213 2.40002 9.45392 2.40002 12C2.40002 14.5461 3.41145 16.9879 5.2118 18.7882C7.01215 20.5886 9.45395 21.6 12 21.6C14.5461 21.6 16.9879 20.5886 18.7883 18.7882C20.5886 16.9879 21.6 14.5461 21.6 12C21.6 9.45392 20.5886 7.01213 18.7883 5.21178C16.9879 3.41143 14.5461 2.4 12 2.4Z" fill="#000B2C"/>
</svg>
