<svg width="24" height="24" viewBox="0 0 24 24" fill="none" xmlns="http://www.w3.org/2000/svg">
<path d="M11.9999 4.2C14.0686 4.2 16.0526 5.02178 17.5153 6.48457C18.9781 7.94735 19.7999 9.93131 19.7999 12C19.7999 14.0687 18.9781 16.0527 17.5153 17.5154C16.0526 18.9782 14.0686 19.8 11.9999 19.8V4.2ZM11.9999 2.4C9.45382 2.4 7.01203 3.41143 5.21168 5.21178C3.41133 7.01213 2.3999 9.45392 2.3999 12C2.3999 14.5461 3.41133 16.9879 5.21168 18.7882C7.01203 20.5886 9.45382 21.6 11.9999 21.6C14.546 21.6 16.9878 20.5886 18.7881 18.7882C20.5885 16.9879 21.5999 14.5461 21.5999 12C21.5999 9.45392 20.5885 7.01213 18.7881 5.21178C16.9878 3.41143 14.546 2.4 11.9999 2.4Z" fill="#FEFDF9"/>
</svg>
