<svg width="40" height="72" viewBox="0 0 40 72" fill="none" xmlns="http://www.w3.org/2000/svg">
<path fill-rule="evenodd" clip-rule="evenodd" d="M36 44C36 35.1632 28.8368 28 20 28C11.1632 28 4 35.1632 4 44C4 52.8368 11.1632 60 20 60C28.8368 60 36 52.8368 36 44ZM20 36C20.4243 36 20.8313 36.1686 21.1314 36.4686C21.4314 36.7687 21.6 37.1757 21.6 37.6V45.6C21.6 46.0243 21.4314 46.4313 21.1314 46.7314C20.8313 47.0314 20.4243 47.2 20 47.2C19.5757 47.2 19.1687 47.0314 18.8686 46.7314C18.5686 46.4313 18.4 46.0243 18.4 45.6V37.6C18.4 37.1757 18.5686 36.7687 18.8686 36.4686C19.1687 36.1686 19.5757 36 20 36ZM18.4 50.4C18.4 49.9757 18.5686 49.5687 18.8686 49.2686C19.1687 48.9686 19.5757 48.8 20 48.8H20.0128C20.4371 48.8 20.8441 48.9686 21.1442 49.2686C21.4442 49.5687 21.6128 49.9757 21.6128 50.4C21.6128 50.8243 21.4442 51.2313 21.1442 51.5314C20.8441 51.8314 20.4371 52 20.0128 52H20C19.5757 52 19.1687 51.8314 18.8686 51.5314C18.5686 51.2313 18.4 50.8243 18.4 50.4Z" fill="#FF5449"/>
</svg>
